<mxfile host="drawio-plugin" modified="2021-10-20T04:45:32.286Z" agent="5.0 (Windows NT 6.2; Win64; x64) AppleWebKit/537.36 (KHTML, like Gecko) Chrome/84.0.4147.105 Safari/537.36" etag="BRxVBKecGOs6FMTRcZC2" version="14.7.4" type="embed" pages="6"><diagram id="23iRSUPoRavnBvh4doch" name="Login Page"><mxGraphModel dx="804" dy="445" grid="1" gridSize="10" guides="1" tooltips="1" connect="1" arrows="1" fold="1" page="1" pageScale="1" pageWidth="827" pageHeight="1169" background="none" math="0" shadow="0"><root><mxCell id="0"/><mxCell id="1" parent="0"/><mxCell id="gfFsc7_Ge9fltD5E59rv-3" value="&lt;b&gt;&lt;font color=&quot;#ffffff&quot;&gt;Country Flag&lt;/font&gt;&lt;/b&gt;" style="rounded=1;whiteSpace=wrap;html=1;" parent="1" vertex="1"><mxGeometry x="70" y="40" width="70" height="40" as="geometry"/></mxCell><mxCell id="gfFsc7_Ge9fltD5E59rv-4" value="&lt;b&gt;&lt;font color=&quot;#ffffff&quot;&gt;App Logo&lt;/font&gt;&lt;/b&gt;" style="rounded=1;whiteSpace=wrap;html=1;" parent="1" vertex="1"><mxGeometry x="650" y="40" width="70" height="40" as="geometry"/></mxCell><mxCell id="gfFsc7_Ge9fltD5E59rv-5" value="Welcome back" style="rounded=1;whiteSpace=wrap;html=1;" parent="1" vertex="1"><mxGeometry x="320" y="120" width="160" height="40" as="geometry"/></mxCell><mxCell id="gfFsc7_Ge9fltD5E59rv-7" value="&lt;font style=&quot;font-size: 15px;&quot;&gt;App motto&lt;/font&gt;" style="rounded=1;whiteSpace=wrap;html=1;fontSize=15;fontColor=#FFFFFF;" parent="1" vertex="1"><mxGeometry x="190" y="170" width="450" height="30" as="geometry"/></mxCell><mxCell id="gfFsc7_Ge9fltD5E59rv-8" value="Email" style="rounded=1;whiteSpace=wrap;html=1;fillColor=#dae8fc;strokeColor=#6c8ebf;gradientColor=#7ea6e0;fontSize=25;fontColor=#000000;fontStyle=1" parent="1" vertex="1"><mxGeometry x="270" y="250" width="290" height="60" as="geometry"/></mxCell><mxCell id="gfFsc7_Ge9fltD5E59rv-9" value="Password&amp;nbsp; &amp;nbsp; Show" style="rounded=1;whiteSpace=wrap;html=1;fillColor=#dae8fc;strokeColor=#6c8ebf;gradientColor=#7ea6e0;fontSize=20;fontColor=#000000;fontStyle=1" parent="1" vertex="1"><mxGeometry x="270" y="330" width="290" height="70" as="geometry"/></mxCell><mxCell id="gfFsc7_Ge9fltD5E59rv-10" value="Sign in" style="rounded=1;whiteSpace=wrap;html=1;fontSize=15;fontStyle=1" parent="1" vertex="1"><mxGeometry x="370" y="440" width="90" height="40" as="geometry"/></mxCell><mxCell id="gfFsc7_Ge9fltD5E59rv-11" value="Forgot Password" style="rounded=1;whiteSpace=wrap;html=1;" parent="1" vertex="1"><mxGeometry x="230" y="530" width="390" height="30" as="geometry"/></mxCell><mxCell id="gfFsc7_Ge9fltD5E59rv-12" value="New to MyHome&amp;nbsp; &amp;nbsp; &amp;nbsp; &amp;nbsp; &amp;nbsp; Join now" style="rounded=1;whiteSpace=wrap;html=1;" parent="1" vertex="1"><mxGeometry x="230" y="570" width="390" height="30" as="geometry"/></mxCell><mxCell id="RDpn96l-AhayMM0jO01Y-1" value="GDPR" style="rounded=1;whiteSpace=wrap;html=1;" vertex="1" parent="1"><mxGeometry x="355" y="620" width="120" height="60" as="geometry"/></mxCell></root></mxGraphModel></diagram><diagram id="_e7PSKcamxNrLI-R1nnu" name="Mortgage Calculator"><mxGraphModel dx="804" dy="445" grid="1" gridSize="10" guides="1" tooltips="1" connect="1" arrows="1" fold="1" page="1" pageScale="1" pageWidth="850" pageHeight="1100" math="0" shadow="0"><root><mxCell id="uzg7oD1FgbCw2RGdiuDu-0"/><mxCell id="uzg7oD1FgbCw2RGdiuDu-1" parent="uzg7oD1FgbCw2RGdiuDu-0"/><mxCell id="FlQyLUWN6Shby1ClGyxy-0" value="Home price" style="rounded=1;whiteSpace=wrap;html=1;fontSize=15;" parent="uzg7oD1FgbCw2RGdiuDu-1" vertex="1"><mxGeometry x="80" y="60" width="120" height="60" as="geometry"/></mxCell><mxCell id="FlQyLUWN6Shby1ClGyxy-1" value="Down payment" style="rounded=1;whiteSpace=wrap;html=1;fontSize=15;" parent="uzg7oD1FgbCw2RGdiuDu-1" vertex="1"><mxGeometry x="80" y="150" width="120" height="60" as="geometry"/></mxCell><mxCell id="FlQyLUWN6Shby1ClGyxy-2" value="Loan program (years)" style="rounded=1;whiteSpace=wrap;html=1;fontSize=15;" parent="uzg7oD1FgbCw2RGdiuDu-1" vertex="1"><mxGeometry x="80" y="240" width="120" height="60" as="geometry"/></mxCell><mxCell id="FlQyLUWN6Shby1ClGyxy-3" value="Interest rate" style="rounded=1;whiteSpace=wrap;html=1;fontSize=15;" parent="uzg7oD1FgbCw2RGdiuDu-1" vertex="1"><mxGeometry x="80" y="330" width="120" height="60" as="geometry"/></mxCell><mxCell id="FlQyLUWN6Shby1ClGyxy-4" value="Your monthly payment" style="ellipse;whiteSpace=wrap;html=1;aspect=fixed;fontSize=21;" parent="uzg7oD1FgbCw2RGdiuDu-1" vertex="1"><mxGeometry x="70" y="430" width="160" height="160" as="geometry"/></mxCell><mxCell id="xYWroYIQF-dD_7BhLh1r-0" value="105.000" style="rounded=1;whiteSpace=wrap;html=1;fontSize=25;fontColor=#FFFFFF;" parent="uzg7oD1FgbCw2RGdiuDu-1" vertex="1"><mxGeometry x="240" y="60" width="260" height="60" as="geometry"/></mxCell><mxCell id="xYWroYIQF-dD_7BhLh1r-1" value="16.000" style="rounded=1;whiteSpace=wrap;html=1;fontSize=25;fontColor=#FFFFFF;" parent="uzg7oD1FgbCw2RGdiuDu-1" vertex="1"><mxGeometry x="240" y="150" width="260" height="60" as="geometry"/></mxCell><mxCell id="xYWroYIQF-dD_7BhLh1r-2" value="25" style="rounded=1;whiteSpace=wrap;html=1;fontSize=25;fontColor=#FFFFFF;" parent="uzg7oD1FgbCw2RGdiuDu-1" vertex="1"><mxGeometry x="240" y="240" width="260" height="60" as="geometry"/></mxCell><mxCell id="xYWroYIQF-dD_7BhLh1r-3" value="4.25" style="rounded=1;whiteSpace=wrap;html=1;fontSize=25;fontColor=#FFFFFF;" parent="uzg7oD1FgbCw2RGdiuDu-1" vertex="1"><mxGeometry x="240" y="330" width="260" height="60" as="geometry"/></mxCell><mxCell id="xYWroYIQF-dD_7BhLh1r-4" value="15%" style="rounded=1;whiteSpace=wrap;html=1;fontSize=21;fontColor=#FFFFFF;" parent="uzg7oD1FgbCw2RGdiuDu-1" vertex="1"><mxGeometry x="520" y="150" width="120" height="60" as="geometry"/></mxCell><mxCell id="xYWroYIQF-dD_7BhLh1r-5" value="480" style="ellipse;whiteSpace=wrap;html=1;fontSize=81;fontColor=#FFFFFF;" parent="uzg7oD1FgbCw2RGdiuDu-1" vertex="1"><mxGeometry x="240" y="410" width="270" height="240" as="geometry"/></mxCell></root></mxGraphModel></diagram><diagram name="Notary Calculator" id="G8D1aZjtjkujPePj0PFD"><mxGraphModel dx="804" dy="445" grid="1" gridSize="10" guides="1" tooltips="1" connect="1" arrows="1" fold="1" page="1" pageScale="1" pageWidth="850" pageHeight="1100" math="0" shadow="0"><root><mxCell id="xZCG8_JWlp63l2Giowaa-0"/><mxCell id="xZCG8_JWlp63l2Giowaa-1" parent="xZCG8_JWlp63l2Giowaa-0"/><mxCell id="xZCG8_JWlp63l2Giowaa-2" value="Home price" style="rounded=1;whiteSpace=wrap;html=1;fontSize=15;" parent="xZCG8_JWlp63l2Giowaa-1" vertex="1"><mxGeometry x="80" y="60" width="120" height="60" as="geometry"/></mxCell><mxCell id="xZCG8_JWlp63l2Giowaa-3" value="Type of payment" style="rounded=1;whiteSpace=wrap;html=1;fontSize=15;" parent="xZCG8_JWlp63l2Giowaa-1" vertex="1"><mxGeometry x="80" y="150" width="120" height="60" as="geometry"/></mxCell><mxCell id="xZCG8_JWlp63l2Giowaa-6" value="Notary fee" style="ellipse;whiteSpace=wrap;html=1;aspect=fixed;fontSize=21;" parent="xZCG8_JWlp63l2Giowaa-1" vertex="1"><mxGeometry x="80" y="260" width="160" height="160" as="geometry"/></mxCell><mxCell id="xZCG8_JWlp63l2Giowaa-7" value="105.000" style="rounded=1;whiteSpace=wrap;html=1;fontSize=25;fontColor=#FFFFFF;" parent="xZCG8_JWlp63l2Giowaa-1" vertex="1"><mxGeometry x="240" y="60" width="260" height="60" as="geometry"/></mxCell><mxCell id="xZCG8_JWlp63l2Giowaa-12" value="1200" style="ellipse;whiteSpace=wrap;html=1;fontSize=81;fontColor=#FFFFFF;" parent="xZCG8_JWlp63l2Giowaa-1" vertex="1"><mxGeometry x="270" y="240" width="210" height="200" as="geometry"/></mxCell><mxCell id="t7Jb_7zZhXRJUp5j-0Vc-0" value="cash" style="rounded=1;whiteSpace=wrap;html=1;fontSize=15;fontColor=#FFFFFF;" parent="xZCG8_JWlp63l2Giowaa-1" vertex="1"><mxGeometry x="250" y="150" width="250" height="20" as="geometry"/></mxCell><mxCell id="t7Jb_7zZhXRJUp5j-0Vc-1" value="credit" style="rounded=1;whiteSpace=wrap;html=1;fontSize=15;fontColor=#FFFFFF;" parent="xZCG8_JWlp63l2Giowaa-1" vertex="1"><mxGeometry x="250" y="170" width="250" height="20" as="geometry"/></mxCell><mxCell id="t7Jb_7zZhXRJUp5j-0Vc-2" value="goverment program" style="rounded=1;whiteSpace=wrap;html=1;fontSize=15;fontColor=#FFFFFF;" parent="xZCG8_JWlp63l2Giowaa-1" vertex="1"><mxGeometry x="250" y="190" width="250" height="20" as="geometry"/></mxCell></root></mxGraphModel></diagram><diagram id="_mBgPImrHAwwb5cWxktE" name="Compare"><mxGraphModel dx="804" dy="445" grid="1" gridSize="10" guides="1" tooltips="1" connect="1" arrows="1" fold="1" page="1" pageScale="1" pageWidth="850" pageHeight="1100" math="0" shadow="0"><root><mxCell id="ayCtnhWgm1wV_Kp7_T1b-0"/><mxCell id="ayCtnhWgm1wV_Kp7_T1b-1" parent="ayCtnhWgm1wV_Kp7_T1b-0"/><mxCell id="HelXTzZlGsB_0nW19z1x-15" style="edgeStyle=orthogonalEdgeStyle;rounded=0;orthogonalLoop=1;jettySize=auto;html=1;entryX=0.5;entryY=0;entryDx=0;entryDy=0;fontSize=21;fontColor=#FFFFFF;" parent="ayCtnhWgm1wV_Kp7_T1b-1" source="HelXTzZlGsB_0nW19z1x-0" target="HelXTzZlGsB_0nW19z1x-10" edge="1"><mxGeometry relative="1" as="geometry"/></mxCell><mxCell id="HelXTzZlGsB_0nW19z1x-0" value="case 4" style="rounded=1;whiteSpace=wrap;html=1;fontSize=21;fontColor=#FFFFFF;" parent="ayCtnhWgm1wV_Kp7_T1b-1" vertex="1"><mxGeometry x="560" y="20" width="120" height="60" as="geometry"/></mxCell><mxCell id="HelXTzZlGsB_0nW19z1x-12" style="edgeStyle=orthogonalEdgeStyle;rounded=0;orthogonalLoop=1;jettySize=auto;html=1;entryX=0.5;entryY=0;entryDx=0;entryDy=0;fontSize=21;fontColor=#FFFFFF;" parent="ayCtnhWgm1wV_Kp7_T1b-1" source="HelXTzZlGsB_0nW19z1x-1" target="HelXTzZlGsB_0nW19z1x-4" edge="1"><mxGeometry relative="1" as="geometry"/></mxCell><mxCell id="HelXTzZlGsB_0nW19z1x-1" value="case 1" style="rounded=1;whiteSpace=wrap;html=1;fontSize=21;fontColor=#FFFFFF;" parent="ayCtnhWgm1wV_Kp7_T1b-1" vertex="1"><mxGeometry x="80" y="20" width="120" height="60" as="geometry"/></mxCell><mxCell id="HelXTzZlGsB_0nW19z1x-13" style="edgeStyle=orthogonalEdgeStyle;rounded=0;orthogonalLoop=1;jettySize=auto;html=1;entryX=0.5;entryY=0;entryDx=0;entryDy=0;fontSize=21;fontColor=#FFFFFF;" parent="ayCtnhWgm1wV_Kp7_T1b-1" source="HelXTzZlGsB_0nW19z1x-2" target="HelXTzZlGsB_0nW19z1x-6" edge="1"><mxGeometry relative="1" as="geometry"/></mxCell><mxCell id="HelXTzZlGsB_0nW19z1x-2" value="case 2" style="rounded=1;whiteSpace=wrap;html=1;fontSize=21;fontColor=#FFFFFF;" parent="ayCtnhWgm1wV_Kp7_T1b-1" vertex="1"><mxGeometry x="240" y="20" width="120" height="60" as="geometry"/></mxCell><mxCell id="HelXTzZlGsB_0nW19z1x-14" style="edgeStyle=orthogonalEdgeStyle;rounded=0;orthogonalLoop=1;jettySize=auto;html=1;entryX=0.5;entryY=0;entryDx=0;entryDy=0;fontSize=21;fontColor=#FFFFFF;" parent="ayCtnhWgm1wV_Kp7_T1b-1" source="HelXTzZlGsB_0nW19z1x-3" target="HelXTzZlGsB_0nW19z1x-8" edge="1"><mxGeometry relative="1" as="geometry"/></mxCell><mxCell id="HelXTzZlGsB_0nW19z1x-3" value="case 3" style="rounded=1;whiteSpace=wrap;html=1;fontSize=21;fontColor=#FFFFFF;" parent="ayCtnhWgm1wV_Kp7_T1b-1" vertex="1"><mxGeometry x="400" y="20" width="120" height="60" as="geometry"/></mxCell><mxCell id="HelXTzZlGsB_0nW19z1x-16" style="edgeStyle=orthogonalEdgeStyle;rounded=0;orthogonalLoop=1;jettySize=auto;html=1;fontSize=21;fontColor=#FFFFFF;" parent="ayCtnhWgm1wV_Kp7_T1b-1" source="HelXTzZlGsB_0nW19z1x-4" target="HelXTzZlGsB_0nW19z1x-5" edge="1"><mxGeometry relative="1" as="geometry"/></mxCell><mxCell id="HelXTzZlGsB_0nW19z1x-20" style="edgeStyle=orthogonalEdgeStyle;rounded=0;orthogonalLoop=1;jettySize=auto;html=1;fontSize=21;fontColor=#FFFFFF;" parent="ayCtnhWgm1wV_Kp7_T1b-1" source="HelXTzZlGsB_0nW19z1x-4" edge="1"><mxGeometry relative="1" as="geometry"><mxPoint x="60" y="370" as="targetPoint"/></mxGeometry></mxCell><mxCell id="HelXTzZlGsB_0nW19z1x-4" value="37.110" style="rounded=1;whiteSpace=wrap;html=1;fontSize=21;fontColor=#FFFFFF;" parent="ayCtnhWgm1wV_Kp7_T1b-1" vertex="1"><mxGeometry x="80" y="140" width="120" height="60" as="geometry"/></mxCell><mxCell id="HelXTzZlGsB_0nW19z1x-5" value="395" style="rounded=1;whiteSpace=wrap;html=1;fontSize=21;fontColor=#FFFFFF;" parent="ayCtnhWgm1wV_Kp7_T1b-1" vertex="1"><mxGeometry x="80" y="220" width="120" height="60" as="geometry"/></mxCell><mxCell id="HelXTzZlGsB_0nW19z1x-17" style="edgeStyle=orthogonalEdgeStyle;rounded=0;orthogonalLoop=1;jettySize=auto;html=1;fontSize=21;fontColor=#FFFFFF;" parent="ayCtnhWgm1wV_Kp7_T1b-1" source="HelXTzZlGsB_0nW19z1x-6" target="HelXTzZlGsB_0nW19z1x-7" edge="1"><mxGeometry relative="1" as="geometry"/></mxCell><mxCell id="HelXTzZlGsB_0nW19z1x-6" value="33.550" style="rounded=1;whiteSpace=wrap;html=1;fontSize=21;fontColor=#FFFFFF;" parent="ayCtnhWgm1wV_Kp7_T1b-1" vertex="1"><mxGeometry x="240" y="140" width="120" height="60" as="geometry"/></mxCell><mxCell id="HelXTzZlGsB_0nW19z1x-7" value="336" style="rounded=1;whiteSpace=wrap;html=1;fontSize=21;fontColor=#FFFFFF;" parent="ayCtnhWgm1wV_Kp7_T1b-1" vertex="1"><mxGeometry x="240" y="220" width="120" height="60" as="geometry"/></mxCell><mxCell id="HelXTzZlGsB_0nW19z1x-18" style="edgeStyle=orthogonalEdgeStyle;rounded=0;orthogonalLoop=1;jettySize=auto;html=1;fontSize=21;fontColor=#FFFFFF;" parent="ayCtnhWgm1wV_Kp7_T1b-1" source="HelXTzZlGsB_0nW19z1x-8" target="HelXTzZlGsB_0nW19z1x-9" edge="1"><mxGeometry relative="1" as="geometry"/></mxCell><mxCell id="HelXTzZlGsB_0nW19z1x-8" value="39.600" style="rounded=1;whiteSpace=wrap;html=1;fontSize=21;fontColor=#FFFFFF;" parent="ayCtnhWgm1wV_Kp7_T1b-1" vertex="1"><mxGeometry x="400" y="140" width="120" height="60" as="geometry"/></mxCell><mxCell id="HelXTzZlGsB_0nW19z1x-9" value="457" style="rounded=1;whiteSpace=wrap;html=1;fontSize=21;fontColor=#FFFFFF;" parent="ayCtnhWgm1wV_Kp7_T1b-1" vertex="1"><mxGeometry x="400" y="220" width="120" height="60" as="geometry"/></mxCell><mxCell id="HelXTzZlGsB_0nW19z1x-19" style="edgeStyle=orthogonalEdgeStyle;rounded=0;orthogonalLoop=1;jettySize=auto;html=1;fontSize=21;fontColor=#FFFFFF;" parent="ayCtnhWgm1wV_Kp7_T1b-1" source="HelXTzZlGsB_0nW19z1x-10" target="HelXTzZlGsB_0nW19z1x-11" edge="1"><mxGeometry relative="1" as="geometry"/></mxCell><mxCell id="HelXTzZlGsB_0nW19z1x-10" value="33.850" style="rounded=1;whiteSpace=wrap;html=1;fontSize=21;fontColor=#FFFFFF;" parent="ayCtnhWgm1wV_Kp7_T1b-1" vertex="1"><mxGeometry x="560" y="140" width="120" height="60" as="geometry"/></mxCell><mxCell id="HelXTzZlGsB_0nW19z1x-23" style="edgeStyle=orthogonalEdgeStyle;rounded=0;orthogonalLoop=1;jettySize=auto;html=1;fontSize=21;fontColor=#FFFFFF;" parent="ayCtnhWgm1wV_Kp7_T1b-1" source="HelXTzZlGsB_0nW19z1x-11" edge="1"><mxGeometry relative="1" as="geometry"><mxPoint x="710" y="440" as="targetPoint"/></mxGeometry></mxCell><mxCell id="HelXTzZlGsB_0nW19z1x-11" value="542" style="rounded=1;whiteSpace=wrap;html=1;fontSize=21;fontColor=#FFFFFF;" parent="ayCtnhWgm1wV_Kp7_T1b-1" vertex="1"><mxGeometry x="560" y="220" width="120" height="60" as="geometry"/></mxCell><mxCell id="HelXTzZlGsB_0nW19z1x-21" value="The monthly payment&amp;nbsp;" style="rounded=1;whiteSpace=wrap;html=1;fontSize=19;fontColor=#FFFFFF;" parent="ayCtnhWgm1wV_Kp7_T1b-1" vertex="1"><mxGeometry x="210" y="440" width="600" height="30" as="geometry"/></mxCell><mxCell id="HelXTzZlGsB_0nW19z1x-22" value="&lt;font style=&quot;font-size: 15px&quot;&gt;The sum from down payment, notary tax, furniture, parking, storage space&amp;nbsp;&lt;/font&gt;" style="rounded=1;whiteSpace=wrap;html=1;fontSize=21;fontColor=#FFFFFF;" parent="ayCtnhWgm1wV_Kp7_T1b-1" vertex="1"><mxGeometry x="20" y="370" width="600" height="40" as="geometry"/></mxCell></root></mxGraphModel></diagram><diagram id="bE9pQyNU9N68tmsAfaie" name="App Logo"><mxGraphModel dx="804" dy="445" grid="1" gridSize="10" guides="1" tooltips="1" connect="1" arrows="1" fold="1" page="1" pageScale="1" pageWidth="850" pageHeight="1100" background="#ffffff" backgroundImage="{&quot;src&quot;:&quot;data:image/png;base64,iVBORw0KGgoAAAANSUhEUgAAAyAAAAJYCAIAAAAVFBUnAACAAElEQVR42u29e5gdV3nm+9burVbLUtuSJUuWZTC2Y+wJ2AwBD5gAweaSgLk5kJvHnvMc5kwIec6TMCEHhpyBhOCBCTkzwzM5MxkIYcI4lwmBZEhikgwXBSYEcxwuEhgbC9my3bparVvfe/fudf7Y3bv33nVba9W6Vr2/+CFSd9WqVWtX1X71fl99X4I7/hwjCIFssn6evbHI2alwY4NbCrlxDG5Zug5Km5VuKWD/cOqrJCocQnkzl8eqcNb6m6le9kY3M7KAJads7sYx8BHITVt2tpXnY/Z5ov8xyT1wqi+sy8uyaOkIMUlLekv5L568naS/7Cv+UFQ6J50t5XWM7OE0BjR+OMmBhYFDxIcwuTiyo+kOa+w20FmhUD4pW9MWlrcP7XyDXdj+flROJBRaclen0iWrNYINVeRM0lVCONjD0M7C2qyKLz/FYwmjmk+YkClCcupRISwJODvDOvuCj3Q+7q5MCiDSFIYFlpL2F9U1Uy3sK/l9hDVxo/cBmT5nxX3NKLK636E+zKq4PAAqJ7+fpjthRmVGIkMmREj7qvCHxm97nYBdjeODLnVYwJvFEBW0Fm30fFa6l3Hkysld9LM25hwhQ7Q0b1e13Hb5i74e9pXWirmgFvFBB4OYXU7D8iBksag6aiDffIF9AYemnMINHlI5kaBpld3S9nPba2hfOc7TCiAcqbyv8DM71fURcRhHASO8Div0Nrd2dk1TTqFe8Iw2Eie0zN0e1YODtK8qBuzUT8ZIfNBIyrnODGqvfgJOwBJ+lZP2hxZItNH6DpbH5yuEhJTTUr4onea2691xFe+xuOwrrc/I+KdT/dyjiQ8yAcv1uDEcXXsWTctwpwAiDaJlKDhoSTMZtK/UZ2j3UWDKTwo7vd34vuHEB5mAVXXUQF5ptDQNZrgHcr6UdMQbLRMXpaXcdr3pmEv5Kt5H+HvNEIZOwci+NYkPOlhbJmCFffRQEu6Zp0VITWgpXPGuc9stZF/pje8GU9XbQ09vh+k5m1l9H5uFN6U4ErAizdOicvLyMRHiDelWORaDgwY9J1dvLArneVrmM7tqFx90KQ7MfAXXKQHLByLOk2eGu9/zZSI8cUWr2sVd3ZFS2sngy4Mee+NonrzcHsZPoanxQZcFGuqQgKVaECGqmvLCqBQ2c2MGsHpUToQU0pK6AQwEB5U21lMJ5oYKLU/LeHo7jA/I+GA4n0UgRJGAFUaxieBumaZl9BNiBYkQoZngoB2hY7KiVVxJ66h05owPwt5JuCzQwAQsP6P6bgrk6gaMPsOdyoz4pKV7LeoGBy29ZujZvsocx2qelpv0dsYHKxzCZYEGYXRKhj+vQI5Za0+LGe6EhEer5Hr1GByMyb6yebeHld5ueorRxAcDP4SlKUVRASuq1HVmuPs9X0YbiUNaRde0WnBQ6YapPILJRK6KVbIqnoip1wzdpLc3Nj7IAg1KaxjF15jfEqPMcI/qfAlRp6V+vebJEaOFrww2xjFYJct9cdFg09uFvdMPOz5otkBDw3stBnKqkSVVMsOdkDhoGUq9chtJNJnI5cy+yjy4c/vKW3o7lCfj5AOwv2+0nlbIws1zPM6OBGlchnvIdzchBmiZuNU9RhLN2Vflqi6Q4qJu7Cvj6e2MD8LhID4IOgEr0hKjdsYNJcOdAojUnCyBpRwcVNrYQW67sPBDZwiL40SQ3t6k+KCDQZiA5WhlLN04zchw5yuEpKakBJaZ1Cu42NhZYxzYsa9MFRcVAXhaVddXd9fQGy/aL+DOBKyKpyq8nIvtFY00w53pXKRWtJT3kNJARiKM1baNrzGOZdx0RfSf3u54VgF9wAFvFvCJBnLKofQOCq2DtYMbnBBbtOQuU3uJ8Coba2qmyo8Id/aVqeKixptJG0+rsvdA9BUfFGqbVZp8eOqHCVjejl7rNyupnEjMtCQuZSfBQbWb22G7QxHwv9GtHCaoPK3i39Y3Pmi2MrvTtwRq9I1oNgErlG481lctjHlQmRH/rAssY+rKWr8dSz12AqqSFWx1Bpg5SqVPgvFBI/OMt621nc1EyOdi+4Jnhjshdmlp7WW1BqlecFDpBozRvhL+jm1aoNQ4PlhpetFZREzAMnVSgSRg1XFtQ1s90iRahVeevboMxu8xl5VFw7CvbMytyodj/PkVY3zQSGjPaTEIE5sxASvQo9teK2a4E1JEy3zqldQdqB0cDFIzmXxYVJyeqSNKL7jy4eyVv5I/nJmlsY/LYhAuJxwDcSRgBRK2s3N2VE4kclrlN4Bq6pVFr8tobrvBmzcU+6ra3IJKb4fbw0UTH3SwPo1pAVTLBCzP92Yg7ypSmZEgaJVcnZXUlQmvy0Vue23sK+PVGSrOp8qAxXsEHh+scPwAC7ibmZHLWKSd5fL7te05T8u2cmJ3HVJDWiYHM+51GXak7GimOttXIXR3jjE+aN/dMVvHwcwyBvjuoV/iCoT5bQpk++SozIgHWkX3g7u6DAaKNChsbL2yqN4jANUOatO+Ek7mI7mrcJMWJjlwM+ODAU7JS3NGv4vqt8RoGC/9UTmRgGnl3jNxBQd92Vfyx/ISc6y0Dm7sK8fKI+r3B8MRSfEXaAg6ASvSEqORzYMQ27Syr3sr6spscFBpY6VD18W+MlVc1LGfZGr5avz+YDgF3OtQoKGBCViWyjEwT4uQIVoZF6VTdaUdHHSZ2175KRCKfVVxJZ34SY7T26PpP1hl35p6WkFTxwgXi7MTokLLyfWtqK6CCw5a1kzu7Ku4XjMMKr3dZf9B2JoAvB/C0rGYgOV4llEVZ2eeFvFEq/COsJp6JXNLCmsby9+HDl8zdIap4qKOq7eb20dq/sLacauckcv4oJEFcHos65dMdJML4eCGb0xCIqFV9+BgmKUZSufizL5yUgTcVHp7lOWvYo4PuizQwASssBYwvKuxNp8UaQytnCvTk7qyFxz0ZV8F+BSwG/UL4AEXow7z5papHiLA+GCAOGwE6excbElWpq6T2tLKunqNlLxCNXVlLzhY2RqpuX3l5kFmKr2d8UH1WbmM2dlfEiZgOZ9lVJKI0Ubij1bqRtB4vjhLvXIcHHT4mqEz3FdnCCK9vWHxQWHiEEZCTi7rCzABK8iD27rwqJxI8LR06vb6SYR3HBzUnVvJsKUTC9C+cvIgC6KZNOOD9YAJWI7PhWE+QjJoyd0ALlOv3AYHlZ4F1iuLWkZYnZ6pPC03zaQZH/R11dY+S72OCVhePtugP2VCymlJXJ0hqKvqwcG8bYOqkhWJfRWsOS/celqNjQ/K9gVyWSzexGZMwDJ2LpREhGRWcs+7AYznXaGiYqs8YeFYihlePFsHdV+dwXUz6cIBjQcrGR90Ok+niszHlLwuW1yp68zTIl4pruReLT3ZbupVwMHBJtpXwVZn8FXS3dThJA/bzPhggPiID4ooVpWSiDSOltHXBm2mXkFxApp3sn0pJirPXAP39pXCitn+mOycNuODVQZxsciKm8URH3RJID2ePY9LiDYtqes1hNSr4IKD9m/+qO0rx9UZ5Ac0n97e2PhgMAXchepmLpcu/s081w6lciKx0iq/poNTV26Dg0ob075SXjFT40SU3m7tcBb7D7qMDzqgMV/ttUzAkp0slRnxTKvkLrKR2K56JxuvMi8CiCQaPG6N7SvzzaRDKENqLZveyBn5jw+yQIOFzeqUgEXlRCKhVXQnyKorZ6lXJiYgVCSaWSkm7BxXem2Mbel+bhVX3sx8HKe3C/uzCjs+aDbwV4cCDQHenIEkYBESIvmFRn2qqwiDg3Z2Kh8iGvtK2Dw106sad/krSC+mu2uX/apj3SyO2qEUbiREcgqNWuqfY0VdqXxBitAiiQ22r+zS5PR23/FBF5csy4O5X0tqHULUyCo0KiRvmCrqCmbGNNNz0H4kkfaV6prYzfeq8GmZ//rw1bTHnpcWTgF3lwUamIAV48oQYpFW2Q1gpICCpRveSDK+x40tx8Wisa/cNJMOoQwp44P29g2mQAMTsOq8MoQokCo0WvWVPR+pV1IT8BcctFSaocb2lfwnG2x6O+ODjidv+BDM07K6WkzAIo2glX+hyqmrEFKvzAYHlW5js8FBg3GxqO0rR/a+4/R2BHA4+/u6iA8afb9SONRSLuNWTMAixDetnFvDXP8cp+rKntflKziIyseth30FC3OrMp8K5a/g5nBGrivGB01OpNqFrf3JMgGLED+0su6CkEteaczBcXDQ7BnTvrI0UXXdaf76dVv1tMrFzPig4UEsbRbOKnk9A0LCoJW69M2pK407z7ggsxcc1N+Y9pU9PNpXptPbGR+sNPlmfp+bDZ6qrnTtpScharQsqqt6Bwdd5LYLc8etPBfzuO/Go7EcIaS3Mz5YYWAXBdyjLdBQyxaEhARDS+4uilNdxRIctFWaoWn2lc21jSC9vbHxwWBeDBRmj+UFL+8qMgGL1JOWxJ1QM3VVuayo3GlXHk3+pHy17ql0JpXOzqdsiie9HY4nU4/4YLzZTgEXaKDmIY1EpdCozr1kRLioY1UwGQzSgfaVe4xXZ6h6QZk4jPEoKuODRj81FmjwuRkhfmjpqitzrw3WuAZp6dFttTt08HpjFZxJumDT20Mqf2WmZU2QSfeGr3gHxSDqVKCBkKbTkro5DaurKFKvdKWb09x2pSPQvkJVY6/KR+Co2pbWXWBpQVRnZVFZGvkIzQ5S+wINTMAiTadVfm/oqCu5u8576pXqoyG43HYtuUD7SmkRHKW3V6m2FWZ6u6/4oNxKCu8xUPu3lfZmjOMRYoJWyQ2hqa5iSGyHM6/LfnBQ8xEWRqa5Zwx5Wo7S22Muf+V4VkYO4TTZy8FbAqpLwgQsQvRpFV21srJJcjObBUU15hNLcNDAyfq2r9y3dnb0mqGpcYyHI4N8jS7u+GB03/rUH4R4ppV7T8qrK+O9mUt2MWFHyZ2MwuAGgoNKG1evLOpFwXhs7Sw/TVN5Wm7S2xkfVD+u//hggJYPE7AIMUxOoVF76kr2V/UNDiptrCbsbGZwaxNKa2eb1RmCSm83/zFEGB80UvMzwPigiwk7PBYhtSar0KhhdaWxiy915SQ46DS3XeUI1l8eDCORy1F1BvVx7AZSLa6O3MCMD9pfRsMzYQIWIZVIFRo1r668dBuEZTVmtqyo7sYGSzNEiQ37ylQ6lPG3AoMsf2V+51jigw7WJ94CDYQQYLTQaFDqSvbJ4DX1SnVAWxvX3b4y9aUYbHUGU6fgqAe2kcNFHR8MR8wFWKCBCViEAEM5WP7VlfpRvKdeBZ3b7ly+qM3ExnFs2FdOqjMEkd7O+KD6b8Mp4C7MTtiE1KpD92tC9GnlXP9e1FU9Uq9goJ+02dx2P1WySocPuOaCz+oMAaS3V/pebGx8kFE2riEhQ7SyLleqq7oGB72kmft9Gjr3tDzKJscBO8YH/a8PCzRUX2pCbNFyqK6gvovVkleopMaEkQHlN7YTHFRbrbDtK0e9caS3DCK9Xf1qNJ/ExfhghfUx+6mxQAMhDmnJ3hMG1JWDCu+uapCaSb2qbkI4zG2vvmiGPw6jU7JbQsxjervj8ldN6D+ICifOftVRrCEhZmhJXbge1FXBQXwHB4XyL0xuXAP7Sn7a8eVpCUPjWPs0g0hvd9DZ2nd8sNqqWT9HP8cipFm0yu8fN+pK8lfe1JVu0XaLha8qRxKtV0kIxr5y1BvH5uCu09udHE5yQYTj45r4RAIq4M4CDYT4oa3yENHoeANZdRV0Yrvf4KDL3HYlYrSvrOZpuRE0btLboy5/ZXzORs7IWtdIw5e3y2MRUmda0jeJtIRyXfLKNrp1GWB6YxfBQS/2leVP1n2yuU/DrPjIDUlvZ3wQDgdxeToUbiQmWnJXsnF1ZfC1wVDrMrgODir83lY/RJPJ8c7sK9O9ceQHN/a6ott8c2O7GFklxgdNrI+ZRWZEj5AhWhJ3im91pXFLNzE46Du3XfM0g7GvTH2R2zXMAkhvZ3xQ54xqER90aq5RrpHoaZfdGwGoq6BTr8ILDvoqzVAf+8pUbxznLza6PorGRyN5OMYHA4cFGggpp1V4AVNdFc8u8OCgsDO3SPo6w6B95f6IbpbLcXq7+kIwPljpxF3WFSWEjKLV7DlYdeUUEwrPeHtEgyOE5b37ta9M9cYJtYuOo/R2xgdNraTR45st0OBSfTI+SMJGvdmzYXWlcfO4tbvspV4pr5WlwlfQnJv8JGtjXwnnR3S2XPozMx6OZHzQ8b6qg9D6IkQKxWbP5tWVuXf6oku9chwcVJqewdIMBgjZvkIYR9S4NUJIb2d80N5dFkt8kHKN1Ja2prqyupfPogzeU6+sZc37Ks3gvt0NXNpXwtvchMcker1rW+ZwpnUY44Mu44NVToeQ2tHWuRFrq66kHhJm5qC2XKLqxsKBFHOYyBWgfWW3uKibUGBE3Z1heDKMD4ZTwJ0JWKQuSPQiHPltNOpK5842/KRwExyE0Y3VpJi5ZamPfSVcz63KB+roS8pXm0KNydQjPuhgECOHYHyQ1JmWxOUbqbpqTHAwiLrttK+UT6PSD4NNbw+q/FVz44OS7/T5PkdCak0rYnWlcc87VVe1CQ6axfJrhiHaV6E1gWZ6u4XDhVng3sggZpK9WKCBNI627O1iPRde/a4NOrE9wuCg0sYGSzMYIBL7KojiojY/DeE2rcp8ervk4Rz0vbH3gXl/gdH204CQUGhJXfq21ZXPklc28OJ1VT5rg7ntaqvVQPvKSV6UMDUfN+nt9St/5Ts+6OLE2T6IkFxa5Rd0DdSV5N3rPfXKbHAQKqdjNred9pWZs7ca9XPzhImoDKmvYhDe38SMLT5ISCS0S24UhW/xgNVVTVKvjMzQbCTRZbvDyoXsjW0ZSDlTDWxWUmX5K82r3f5xzQwSjKdFHUYioVV0b1Bd+am8ZaKBj73cduulGaoPH7N9Zaq4qKl0qAjS2xkfVD9uNHW/qKVIxOQUGlVLTveurlDpKN7UlZL7YtPrkt/YRWmGwKtkhdyix+pyVPjcHae36+zD+KDGIAz8EVJEO+M+iU9duerlrIGZ1CsjJ242kmgp66u6ZqqvfeV+bR1V26pf+Svjixl2fNDl+5WUayQe2mZS2mFEXendVJZeG7SaepW3X+TBQUu57cKcPIravoqsOkNQ6e2OD8f4oJFDUEuRuGkVXs+O1ZXzCu8hBAfLiSQ4qITTkF+N7auKa+ukOkMQ6e2MDxofhIYTISW08u8XqivJYU0FKE3UIHURHISL0XSGtf2aYYD2VVzVGSLq7mz8cE2IDxq/zc0uIyGuaWfdJCr/2pPf0Y26kpx5NOrKXrxPOzjovTRDtasgdzfaV1qzdJTe7rj8FeOD9k6cIok0hbZ+SjuCVFc2Xhu0jo9EeM2N3VY0VZgD7Suj10Kw6e3C9tXl7HCMD9pbH0KCoK1yTWupK6GV/eBBXaHSsOanoaiu7AUHXeS2u2yMU1/7SmF0U/nyTG+v8gBxdnHUIj5ISGy0pe8Vs+UYCnf0o65CTb2qumIVNy47uot2h6Ub237NMBL7ym5xUaa321klMx+fqH66occHqcNIbLQlrnuHKe2wqa40bvsQUq/06zIEFhxUwmljnBrbVzYPaex1RX+n4OBwIqQcLzOfCBs8EyJFu0JYEJGpKz/dBgt2Dd/rKt3AsX0lvyy0r3SX1+frim7KkJqft4knQ+G5V5qzp/ggXwwkjaelcHdFpq4kBzBXp9RLDVIzwUGzha9cRhKr52k1w74KrjpDCOntDSt/xfggIW5pyd4M8akrS68NRlGXwUlwMNzcdoOvGdbPvjJUXNRYvlfVD9vI7au/Ypp3qJEb087IjA8SYoi21CVutRwDwlNXwaVeMTjopTGOnaH0FqAKPr+wnORpOU5vN77KFstfMT5IiDfaJfeNUpWsmNSVxlkEpq5iCQ4aWHzd8hY6PzQ4VGz2lcIVEuprhuapS/krxgcJcU6r6B6os7qy/dpgBYSFeRrYuPToThrylIxg5zXDhthXjppJ+3vNsHHlr9RHZnyQEHO0cq9sqqtK93xIqVfBFb5S2ri6ZqJ9pX0Zw+IRjcmmENLbGR9U/0ToS5G6k1MHy3YpUUSkrjQeEFGkXnkMDlbPbbdU8UH1WtI9fjT2VaTVGaxOzO16Su7L+CAh4dG2ZlyhLuqqMalXlQaU39hxbrvBxji0r6p/TKYVm7H09qDCeYwPElIHWoWXdzPUlcZZBKeujHhdZduomWFGI4kmc9tLf2/QCTM2vOUpRVGdwcnCOS5/xfggIfWllX/bNEZdhZDYLoPf1CuNhbWysa/KorSv1C5WM3Pzmd4eVPkrxgcJiY92zi1gIaUdtVdXXlKvDJ2X/oCWNrZfmqFqZVGtRa2hfeUvT6vR6e1weu6MDxKiTtuRcYVaqCvJc2dw0MDG8otTreyZ1rUsNRmNH0ZtXxlziSJPbzc/oOkyqlWmyvggIdK0VG6tUNWV3qw0JEssqVcMDrpsjEP7Su1RoHEWpuw0N82k3ebLMz5ISKi0ZO+EkNWVg2Y4qIG6MttzENY2thQcNLAS5iZD+8r3hFWPbPzL3nV6u+ThCvcNtAE2IYHSlrv9bKS0Izx1pbECduJT2iirMdMDym8sjBpgBnLbaV+pflhu7KuKMzf1oZteUiMLEbp9pfRIIaRutCW+upqjrgx6QrVIvTKzULoj+yrNYL1efNPsq4qfnXAxyyDS2+tX/oo6jDSadoVL3HcdB8/qqmDvuqReuQ4OKk2vuhSrfFz58RttX3l8zVDjMAGkt9e4/JXn24MQp7R1bxivdRwMvzOIEIsyuEu9gs0B481tr35mtK+UtjRU7FTnsWPotFn+Sv+pQkgNaWndBlRXptSVISqlXjkPDgqHjpTSTs2xr+T3t2JfOan/FIRsgvKA9Sl/RR1Gmk5b/cqmujJYINSVHZU7RozBQaWNDea2K30Ofu0rox9ZpXWoMs1gqzPA0MSMX5mMDxISEG2V+8R3HQdn6kryRGSlQG3qMgijRze7sYPSDJZfM6yI8WYAcGlfxVWdIfg8LfpShARAW/rq913HwaW6MlmUITB15bEuA1SDgw4iiS5LMwSTfeW+403tqzPIHyXQ8lcwvSDUYYT0BJbFsCCaoa4iSWx3lHoFAxs7zm23XlnUMsLvkUL2tJjebnmVGB8kJId2JeMKjVRXsr+y2ctZA3epV1EUvlJamUbaV6ZysT3kaZkap5bp7aLC4ehLEaJAW/92cvOmYYDqytJrg/WuyxBHcFBpp2ASjDx/c7myr4xVZ2B6u+1Vog4jBMgt01B6kzRIXRUMYM7uYnDQ7PTkB/NVmiFK+yqMPC03R2R6u/4qOf7ICQmUts513yx1VS3SF0vqVUTBQae57ah8XMuxJy9fUu5749itzhB7erv6LkG0aCSk5rSU7yKqq5L5RZjYHnpwUOl0zOa2u6wsGqN95bE3TjWMva4YQnp7UOWvqMMIWaOtcrO5quNAdeUSux0PjcT7oshtp32luqWNWqwa14yTRXST3h5T2QVqKVJ/2rKXO9VV+fzCq/DuLvUq6uCg0k6WKovW275y/PacjavAcm19/Q+X5a8ICZS21F3hRl1p3/aRqqvoUq9UFzm44KDuaJorYbvdjfyWPjwz9yLGZzNpjfUPIb2d5a8IsUi7mjxCk9SVxolEqq4iDw6qHcVSu8PKXyHC9rH82ldWv2LdxOPc5J+JAE6fvhQhOrQr3BtuwoIIRl1FWvLKR3K9mV5DZjcOoaIp7SvFLY3ZVxUvXTfVGUJIb2d8kBBjtHSveKor3V2MFwi1OZLROdsLDqrMyFduu4EFr7d9ZTXT2833t82C+JUue5a/IsQDba2bx3dKO8JTV5K/0ngw1aQug+qHJSpvrD2a1gjWK4tqTdyPZ2Zhy5IVM3RE4S9PK9z0dvpShGjSVrwljKbD10ldVc0or33qVYTBQevvA1Ye1qTrGZ59Zbc3jsfqDI7T29X3YfkrQkzQVrnKzaXDC0sHoroyPmaNgoMwe2hPpRkabV+5P6LHPkKm9aXj9HZHAxISLusCK5SwIOqprjTO10GqlvE5CCOCyVpw0EVuu5twkukrIRr7ymZvHOEvT6uW6e30pUjjaVeVVkAAKe1wqK4KtnJQlKHaTDxUvYIhr6vyxsHltgdjX5lM+bKwpSncV2dgeruRy4+QaGlVvH2bp67sl7zSONP4Uq/cBActFb5S+Qxtxelsfy1FYl+578bjc6kr7ML0dkKc01a/6+RvIQcp7aihuqpP6pXiJIMLDsLEPOVHDacxjtZpebavPHbjUVdsxl57NH2hsgwpIeZoa94zgSddgeqqyphBJcJX3thnQx4fQscAtK/gKp5lSqw7kU0sf0WICi2dO4HqSmYX1yWvbFNBXemrFjfBwWBz2333daZ9pTkdq68ZGn8rkGlVhFihrXanmQwLoqnqypIP5CP1yuCKKZy4teBgWLntukcwhckmjO7tK1g4YpzVGUxNzFEPbELqQ1vhhlTNhQorpR11U1dBBweVzqXZwUG15XJoX1X/YCts+cxr915/zd5nXrv3+mv37t2z/Yo9O0Y2eOTw8Zm5xe8dPvbI4eNfP/DosZNnDZyIEUzl0pmqzhBEeju1FGkiCX70E/EYVwhGXcFJQVFEn3plPjhYGh+pfnSl81JanOpxOr17p2IWdsWlk95SiJe96Adf9qJ/9Lybrk4rqsynV5/jJ8/97d8/+Bd/843vHT6mcCLCWZ6W+sIqxAeFgU9HJ+QdWkIbIWGR4Ed/r2QTqitQXWltr/rmoKbE0T66tY2V/hFf9ftY67jCnNzUVAxDf5ncNnHnG1/02lc+N0NXJb3/Sfp/LubYybMf+W+f/9uvPDgzu1B+Io4EVkUxWmEcnU/H5ulLPfcIqQllAstZWBBUV5K7VFwTqwLLiLpChQid0Dm62Y0N2kiov33Vk1Y/c8eLJrdO9B5I6MkpCS1VwMzswh/+6Vc+8onPqa9DDewryMomFXNRagVoXxEyQL7AMmxcoYK6MrRjaOoKdooyIDT7yrTXZTE4CFSPJBr4jmmKffW6V/7QO37uNRdv29J7FGk9v4aGHRnj2Imz7/3Qn/zDgUe92leoJndMjVNB+RlfKKor0gxyBFYUYUE0WV2hPsHBSl6X3tFjCA5CRuhYOK4T++qKPTve93+96Xk3XS33kMKaeBL9nyh8Q+//++++50N/shYx1Fg0d8pVzr6Cqfgg7StC7JISWBqtCamuNOZft9cG4wwOwqxb0wT7SuuDG97yzjte9Na7Xz65bSLnkbShpdJCKkl0nK6Z2YX3fOhPvviVB62smOSWOnLH1DhMbyfEA2P4gTeqXPfOwoKwo65MZ2vVU12pYlVdyfzeScn48m0jLc2gNVmtKllX7Nn+799315tf+082j28UiEkgWkAi0IJoQSRA779WkoHeBbp5fNOP3fqc63/gioMPPTEzu2jygtf59E1VZ4izejvVFWkM6wLLsXEFuEhpB9WVHkHVIBVGB3QcHFS6BrRKqNv6uM1XyXrr3bf9+1/7p1fs2ZH0RFVKURnRUgVc/fTdb/jR5y13Vg5+93HZszN1W1n4t4yFz7fKxCibCBllDD/wxroYV9BVV1rxxGjUVWjBQaWNrZUVhb+NhTB5IjHYV9dfu/c/feB/+7GX3dgTVUlfVFlWVGk2j2/64Zuvv/kfX/vAgcMmrCz1T0FH7thUwMLUeVVZKELqyRiufYPa/ReFutJLuoIvdSU5mLkWsCGkXilN3m9wMLK67bBzXM2OjT93962/8e6fuGzHtrSo0p50Uo19l1/6xh97/lJn5eB3nyg6EUe9caS31BnHsj1pdqEIqRcJXvVfFW5oX2FBuFdXRjvh6O0VZVEGmK/LAPdvDsJt4SuVw5WPZqnglvJrhs+/6ep3vvXV1197OXST023bWg9//9h7fuOPH/7+sYCLi8JbdYbS8zJ2HRJST8Zw7RtzfmU0LAgE/cIgqK5sY1xdqa+VwkdmyZGCycPZaiZowNOa3Dbx9re88j2/8Ppdl04qmVWqQcMk0f8PwK5LJ3/y9bckCR741mH95RWGks1Daz7I9HZCqpHpYMUZFkRd1RWMtoiuR0scUwPay223XLcd4dpXN9909ft/+cev2LNd6gEkp6L6g1uytB7+/rH/+4M9K8v08pq3r8DqDIREwYiDZVpageqK6gr678cpF203MlutjUvn7Su3XW2yleyryW0Tb3/Lq97zC6/Pq3HVo9ijWneYRKuVbTvZYNelkz/1hlsuntxy4LtPLC+vWKmSpXOpR1qdAS4GJCR4BgUW1VUA6kpyM518+QhTr8wMqHQUo6XYNadhNLfdVH2mst/f9qJ/9PEPveXm5+QWZy8TVaOKyj3P+cGrXv3yf/zw948dO3HGzIgVk1YrjeOxOgO1FCHAusByL61gTV1Z2NGluqpbUQZXXpeZAau/Oai0sdnCV5ZKM5R/g05um/jQu3/ibXffOlg+tEeBWZUWVQbRflfx4m1b3vjq51+8bd3K0lneGIqLOq7OQEgjySrT4Ne4UtpdKI2stWMD1ZV1jKdeqW4cWHDQ5N2hfQhNCdgzrm64du/gDy2JKvlCDBX3es6zrnr1y5977MTZx544Zf4ydzGOP0+L2VeErJPgVR9XudeCNa7QCHUFs68NhmpfKasre/2kTQQHa5DbnrUmV+zZfs8v//jzb3rG0AMlPwKo/GzyEiYc5gv/6zu/8oH/PjM7X215NcSrgY7a+rcD09sJMcGAwKK6UpgP1VXpbG0EB4W1CTh+c1D1XIpHqy7slNfkrjtuedtdt/aT2Y3oKoVqDht/qCTCBETpos/MLvzKB/7oC//rO2rLq/lipqlxKrxmaDzBn+qKNJUEr/q4nEkcTFgQ9gu1oxbqCjVLvQqjrCgcqxzdT9NaaYYR4yovDij7ACoTVcmAikrKtqz4FBMbfxgVXg988/CvfOCPjvaT3+3aVwisuCikZRPtK0I2GMM1byjbxq9xBaqrwsGpruSvHedvDsaR266Qr/O2u2+95x0/fvXTdqXzlgbzq4opynwHEqCXo9VCsp6s1fth77cDzaGH/5MhKfkvWd9mbQL9lxr37d3xxtfcvLy8ciC7UbTaI7NsS5vdeHSuHCokQnRI8MqPV7prowgLguqqbBfJ+UfQEgdNCg6isn0lO8nrr738nnfccf21l2tbVnlm1aCyGfxhGN/rQycmgP/vm99/9wf+8OjxMxWW119xUViND9K+ImT48ZEvsCwbV/Clrgz15DGwV8XBne/S8NQrRJ3brrSMo5N82923vu2ul6XezoNMafXs9KxsUWUlYatsXZUUQCKAmdmFT3zyS7/18b+uurwK/5ywke9lPOpHgUXI8PMiS2B5N65AdaU/eF3VFWAx9Qrabw4irK44MGxfXX/t5ff88h2pKgzlllWBrhpIUZd62nh5nbBUeD106Oi/+sAfPXToqOLy0r4ipCmkBZZ34woeXhhE7dUV0IjUK2sNCs0GB6WmZ/DQOiJ1cuvE2+669e4fv2XoeVEmreR0lfIIJU8xxT20+iBk7/NbH/+b3/r4X9fBvgKrMxBimMFCo/aNKyDEpCtQXRVur191Uw676go2T1B3Y0u57Wo7FX1N3nzTM377A//sxTdf1/9FkqDVKgoIZlT4BIYT1UVeNrpM4fV0X8LiaqUFme+qQxXM8AXP/YFXvOTGx544dXS0u061bHH3xUXZfJAQ0/QdLCP1o8MMC0JXx4DqSnolndlXVidgLziIwHLb8w4tJrdN/Pxdt951x4ZxVexa5bwJWO5XFTtVBbLJTvJ77hmKkqfa2q97WVkXZhaKl7fwYw+tuChYnYGQKiR45e+WbxVRWBBUV0Z3iS44aHzCHoODcJ3bftuL/tG7fu7VV+zZvvZ0UJRWrWq6Kv2bBH6/pDNOXuTeT+LoiTP/6p4//No3v285+0p+S3/FRUGBRUhmL0Llm8RqWBBUV7LrLL9LXdWV6poEHhw0UJRIdoTJbRO/+e6f+Pm7N4qzFwQERytgbYQCN0pVZe6SU+JhIzw3UuaqlIJgX+l/MgxPJklPePAEL5686Mdvf8HF27YcePDI0lCjaJkPUFj4YYUnR8VrjOqKkBIHq67GFeqlrmpV8srhHCq11q5VcPC2F91wzzvuGOh7UySthh8fG9HATLcpr4XO8CAyLxLCGTLaQAzLv5FdLswuvOueP/j8lw+qXPkWktYly8HTviLEDjkCy4VxhchS2lELdQXYf20QsaVeobHBwSv2bH/Xz736thfdsPY4yI8JZiawr/9ZFG/cH3xg99IqD/KPsJLjDqyT0gcg+xgbFFuDG3/+ywffdc8fXJhdyP8sNC4SVmcgJBpSAisIaQWqq2p7OVBXqHnqFSIpK1rh0Hfd8cKfv2soJpj9jMiRVpn55plBwIF9CzK6Sh9VQ+ObsrSGCrWL8t7PouheH1Va61bWgbLP0I19BRYXJcQlwwIrAuMKVFdlexlUV6hRcNC9uoK/4GDJoa/Ys/2eX77j5o2GzdkxQXlpVWxZaeiqQTnlvszoRtfnwnqjuQnvw0rra9889K57fv/o8TO1s68grdgIaSLrSe5epBViT7pC3dSV7K9iTL1SOUGlLwm1hdX++jGW237XHS/8zXf/xNVP24XC6lYjaexjA+WsRjZLt9AZSVpPjZyTJw60kiRJktZASnyBukrK2j8X93WWGBm9ybTWzzHJOZG83XureOXenW96zQuXljvf+s4RM5+wjS2L92ETaELUSfDK3212WBA1Uleomqxd+8R2mE69gpvgIGAit/2Gay9//zvuuOHay9du/kRKWuWlsRdEA3MS3jMfQEgkareXlr+Sz9lSyqnK+yTynK3Mn/YH/No3Dr3z/b8/3Ci6XvYV6GARskGCV3ysbBsLNUhDCQui2eoKTnyjBqZeIcDg4M/ffevb7npZ/++ZGVcjUqclJ61Ks6yyPZ6k2EOSlWgGKZZHeQudKbayhlp7feA/fuyv/uPHPqt+nbjpjQMWFyXEFMUCy07znOjVlXzJmYaoK9Q99Qom3hwEPOW2X3/t5fe8440DxlX2q4Lp0laQllY5Ce/px02RrkodC95JrXFS8JGnlVaeYnvo0NQ73/8HDz0yJVtJgfYVIREyhmten//EKMSAcQWLYUE4T2lHvdUV1OccbOqV6go7KWRqJvFr6GiT2yb++U+++Dd/5c27Lt3W+3FmxtVgHtVw1VCRuQ1QlGWVzkzqJVe1siqNDmZQAcqFQG2Tns9I3dHBc+wlbBUvRW/Ly3Ze/DN3vBjA175xyMytVvGaNXLLU10RMvIAyXKwGmxcgerK1C6xpV6hRsFBAAI33/SM97/jjfsu3752q0sYVzIxwYJEq7SSyPOrhqWb7sPLhAjTUwViaKWTzE9CxtCaOn7mne///a99/VDhJ077ipAoGXGwjEgrVDauQHVVdS+qK2PBQaWNg3hzcHLrxNvf8vL3/sLrLt4ozp6hrkaMq7F11yrJ2Qbou1YZ4bxsy2rkiOt+FaDYska3142lkYfflMzwtPqGVjKw7unBL57c8qbbX3Dx5EXfWuuuY6jjjXupQ3VFSPpBMeBgRWFcITh1Zab7oY86Dg5KXqGOLXEQ4JuDGxvffOMz3v+ON+y7fMfGTZ5khwX7f840rjLTrbIqYA0N28qyrDT8KkmVk16Egh1FqmSEMPUvyjJPK21ojQw7dfzMO3/997/2jUfkrmTaV4REQE9g1cK4Any/MAiqq7KjaA8bfl0GuAgOoug7b3LrxPvf8YbbbrlhSDwVvi3Yr8KgERNUkla6gik1h8TWF7kQvfUorNWu+KQcbVlYJrM+fd/X7vkPn7ows1B2JTt5eVB+S6orQrJI8IrfUXtm5GwhcbeKaiN4Ma5AdZW1SY3UFUynXsFaz8HCjW+75Yb3v+MNk1snNsRTTlhw4ObPeFUwx7hSk1byllV+V+m1U/OY7d5zvIRuSFlsCB4FmXVhZuGd77/3c186OHolsLUzIbFRJrCCMK5AdVV5L4MFRdGM1CuPdRnUjj65dXPPuMKgNVWmrlpyxtVITFBeWmnoqiSBtqJKin5g4HXTnr8l1NWFnsz63JcOvvP9916Ymc+aN+ODhMRBvsDSK+8eUVgQplLaUXN1BfhLbFfdxaa6gtfUq5zt73rjC952149Mbp3AkLoqSroqNa5kYoJ60qq6ruqrPtPNnsvbPA98DspKq0BmrQ7v1v/bhZmFe/7Dpz593/1qVz5bOxMSDDkCy4txBbNhQVBdlX1MjtUVap56BafBwSv2bL/nl17//I2GzSbVVYG06r0hOPwQ0ZFWeWUjhkeGWTkliZB8vuTYWqVKq1hmDe7+tW8ceuev3zt1bLrw8qB9RUiIpAqNhmJcIcSwIFQsiljVlcb5RqiuVBEVz131IizZ+K43vuBD737TesPmjUoK6TqiQ7/NqSA68GcglUE1WGNzbKRqw3pNh7zqBhlFR9fbS+dmXwHJ2jz77aUzt1n7dSvJLrVQ/B/6f86fw/rv80vPD51dkrlombtguKzDiGYd3P3KvTvfdPsLl0sbRetf6VRXhNhiwMHyJa0QTlgQ9VJXcF3yCjVNvUJAwcHrr7n8XW/90effdNXaDVz4wmBx0pWScTUSEyx1rVI6DwVxwKRopA0LK8ndV/LJs7F50Qcgii+ywvstFT0szZEfdLNGErNGrKz3//s/eeiRKbmLkPYVIf5Zd7BqYlwB3lPa0Sh1JTnNWqorVForraO/7a4f+dC/etMVe7b3/mpPXWUYV9j4a2/LYtdq8K95ltWwWZX61aA7tVHPUwz8WT90mGT911uJUaMrNeECWyttaJWuUjIcCU0GapOOWFl3/vhLUNBdx5TUoboixBAJXv5RmXtO4nbzblyB6ip7L4vqKoTEdoSUegXD9tX6xtdfc/k973j99ddcvnHryqkrjaSrUuNK2rXKtqzy/KreLDN9MoUnWs7khLoayHrvL/Mzy/9Ehw2tYjdr5HCrOVbWdx+Zeuev/7d1K4v2FSHhMoZrXle2TfXi7KhLWBB2qpU2UF3B3EyCSr0yHRwEJrdO/POf/OEPvftNu3Zs6//QiLpaN4dGeuOgv++wcbWRbpVmyPFKkCSi1cq0rDL8qpRTJYrdqaQQmNsrz9waVIGDnlb+sii4WQMbZ1tZl+28uGdlPXRoamm5Y/BiV3sKUV0RUkaxg+XGuEKgYUFQXcFYUQYw9UpuwOGNn3/TVe//l2/oN2xeu2l11ZUN42okGpjdTxoZeyfSZlXio9hogeMlBhO5UglbIu8zlnCz1n+4sYgFWVlTx8+889c/8bWvPzJ8BdG+IiQU8gSWEWmFiMOCoLpC3V4bDLQuQ/a+k1s3v+3Ol/7TN74gLS8G3xnM+1WylnelHBYcfaMtP5l9tOhoK1tajbyol+TX2cqcau6Ty5Dqkgkd5m0zqLRE6l8Tmbny8jJrMGKYFy4USH7vv3/xP370LwdKkrI3DiGhkBZYQu5OdNA8p5o8AoJ+YRBUV263jyr16vk3XvXrv/T6fbsvcayudI0rkRkNLLCsMqVVcYAv6+GFarGxJHP/Iu+qVGkNq6o8mbW6mhRfGmmNVVAra+r4mXe+r2dl0b4iJCBGBBaNKycp7XCprmCroCgcvDYIPwJLWMj3kvv2mtw68ctv/dHXv+KmlhB66qr0hUGZsKCkcZXdkGckxarMsspNgcopZ2qZZLh9jYLYUpJZQqz1Oiy4OpSsrM996Vvvet8nhrrrqFx4JrYkhAw/TdYFljNpBaorqqvKu9Qj9Wp035fdcv37fukNF2+daInVAnWVdoxk1JVqWLDYuMqRVkMBwWJplW1KZUUn8x9eueNIfCBSvXGGPCQh8sYZmZdY/2iHNVCmzCqJGCpprAsz8+963yc+96VvKVzJxrYkhKSeBXj5R+RuqxiMK1BdSQ5IdYWggoOTWyfe90tveNkt1wMYE6tI+zcS6qogMlhdXRXHBOWlVbGuKoj6JaObGWNArxTfZn2DSkppifUQZKnMGowY5jfe2dCzy11xeqE7syzmV1YXOgLAxeOt9lgyOd7aMdH62y8feNevr1tZFFiE+CMlsGprXAFBp7QjbHWFykUZmHqVO+DrXvGcX37rj/YaNreESCDy1dWob1RRXQ2HBddmVaCuMo2rVpa0SkulIk8Oee8eIpFwqDL6VBd+FpJPijy9VaC0pGXW6HaSVtaTM90nZ7rTC92Cye++aGybWP7jP/ir3/ujz8te+VRXhFhgQGBpSiuY6PrsNZ8dplLaQXWlOLL9klfVGirrH1duAlfs2f5r/3KjYbNXdaVnXA1XeJd2rZKN8lBZccakuG2OyfbP65qr6LOvrrTWZNawebWqYmUdn+s++FRnfkVW30yOt84/9ti//Y3/dvT4dPnFT4FFiAUSvPwjyHszppwAjCsEEhYE1ZXiyPaDicbtK6OpV3e+4QU/e+dLL57csn4rCqXEdpfqKkPbjcQE1/9SLK0KLKs8XZXAdSEsgVy9lSm2pGXWem7WgMxKRwwHrazeHzqr4psnOyfmuhrnsiPp3Pcnf/0Hf/yFoouW6ooQOyS47SNSt1bpNlaMK4QSFgRcF7tCROoK0b82CKfBwSv2bP+1t7/+eTdelbQ2lENx6lWxukJWNVFz6qrQuFKRVhlxwyxdpSCqMhc5kfvMJY6QJ7ZGiias/zBBmczKjBgWWFnHZ7vfPNnprOormy3tZO7xI//5P3/qoUeepMAixCUjAksrJogwjSsg3pR2NEZdoaapV7ljirfe+SM/e+dL0ZMQfcUjVhNpdYUBvaKqrkYETaa6Gqrd0Mo1rpKsoyBXWlXWVYPruXbcwdYyiqy9nSdGP8yi46e9q1xDazREWBYxTFtZc8v4xonl0wurMMHui8a++Kd/89u/+xeSV6niE4kQkkFfYDmUVvAdFgTVlcw0LKkroPaJ7TljPvOaPb/29tetNWxOBmsriEQIjdcGx9TVVekLg4VhwRLjSlJatUYLXBW1aN449mhNeAuItf8bXYvRSWUordVsCVUgs9YWdzXLyjp8tvvQ6ZUqxlWadisZmz7x7/6fex965Mmyi58CixAD9ARWPDFBRBIWhI1yDNBSV7DWyBkhqisEWvXqZ+98yc/+zEs3NFBrIMaXqnolk9g+UvLKtroafFWwlXGIcmnVSltWmbpKRVQNmlgy+ksMp9OJoquoRGylo4caMittZc12Vr9+onN63oxxlWb3RWMPfO7L/+V3//LCzDzVFSFWSXDbf5HYjOpK9UBUV0Z2UT/l8FKvnnfjVb/29tfu3X1JkrTW7rqB4KBe6lV1dSWfdDUUFiwzrjJzrVIdeLIcq0FdlVfb3ZqRJTaihdm9wjZUUVpppWRW6iejMittZfWysh6aXjl0xrBxlabdSibmz//n/3Dv177+Pdk7hQKLEHVKBVZdpBXq8sIgAldXqNVrg6hkX01unfjZO1/yM6+/GWuSYt1p6eukwroMeq8NVlRXqaSrjW01jCsFaZXkNRx0Ex0c+fhH/KuBX+QoLTFqTY24Wf1XCLNl1tkl8cDxzrnFVWfnuGOi9Q//88sf+69/Odxdh+qKEGMUCCxn0gphGVeguipdJKqr8s/xeTde9atvf+0Vuy/p3WjqwcHs1CtVdQVgTFddyYcFy6VVkuH89EbMqEwhL6pG0twTqftPtt7o2jRFVoub9Z+pyKw8K+vB0ysPnl6Bc3pW1r2/8+nPf+mbRRc5BRYhWmQKrGyTXGoz5TvTQQ1Sle1thQVhQV253CvnF1XVFWqZ2D65deJf3PnSO99w80aXE8XgYEHqlWRie15FBg11lWQMPjrnwZjgqGGWI60Gl2J9xzJd1ZdTSeZvyj6lpOhJVtqbMENp9X0uXZl1an71myedGldpdkyMPXHwOx/44CcuzMypP9YIIbmMCCyX0gr1CQuikeoK1vKojKkruE+9+pEXXv+r//J1k1snErH2rWkwOCiZeiWprvLKMaSTrvSMq4yAoBBpEVWiq5JRRZWsfxoJZF2ovJE3qiQkQx+1KLllRao6aInMGknMEkiWu+I7T3UeOePBuMpk11jnox++9wsbVpbkk40QksugwDIUE4Qb4wqKYUEgtJR2NExdoaIgs/3aICraV5NbJ9779tf1GjYnQmw4On37Sis46FFdlYYFC4yrVqa0Gi3QkN8UJxnu0iM2/rfgYdbfNfW5ysW+116txKDdlHexiFS5hmyZNaSr1qysU/Or9x9dnuuEpV22jbeOfefB//e3Pnn0+Gm5pyIhpIiewJKRVqitcQWqK5kN/aorBB4c/JEXPvO9b3/d5NaJNVNnw75q9W+1Afsqt6xoXnAwL/VKUl1htKvgxh8GDyeprkqMq2RUYmRIq3SAcGOV1v+YJ6r6RRmqJ76LrFqjA6u24WwVKK1hQytTZvVDhMtdceBU53vBGFdpdo51/vy/f/YP//jzEg9GQkgRCW777dQDI72ZK2mFZoQF0QR1BRcV3gNQV3t3X/Krv/jaH7rxKvSVh+in1GTmtmf0HCwNDhakXhW/NlhQ7yqlrnJfGCwICw4fa1hIZeVaZUurYV2VKapUFVUi+8QZ+rSz3x1MNpTWgDU5cmWVyCwBPHFh5evHl2cDM67STLSTmccf+81/+3tHj50OfKqEhMywwLIYE4QP4wqxJV2hweoKMSa2//Trbv4Xd75kcuvE2u2UJMBGt9683HarwUFJdYXRyKCsupI3rmSk1UZ+mkjlVJWkZm2cjKqTJQauh4KrPi22NpRWTp7WkMzq13RIkuWu+MrRpScv6DRs9sUlyfJ9f/zZP+pZWYQQddYFll9phTqFBeGzlCiorqqlakkLrL27L3nPL772h5799NZI4KzQvirIbZcMDpamXo1VUFfFLwwOqqsS4ypJ71goreR0VbqpTiL/pEoNJtKfdFZf57TSEgNqN9PQWt24BiCEePJC9ytHl5e78YXbJtoJTp/4zd/4vYcHu+sQQuRIcOtvZ/08qJgg3Oazg+pKYlZhqiu4sa9++nU3/x8/8+JtWyeSUQtHZJRmkMttLwgODuWSy6VemVVXRWHBwfNJxQQz0tiTDacNw9IqJ3g4JKoS2JIpAkPhvAytlaW0eoZWWmb1UuBnl8UDx5eeiMq4SrNry9gX//SvPvKxP4/6LAhxT1pg0bjyvS/VVeku/oKD27ZOvPcXb3/pC57Z+2uefSVZmqFKcFD7tcHMdwbl1dXgUVqFxlWrn+A/OIde3YdBRZJZa1RaVOW+h1jyGCi+7gfqaqVbOwspmfXg6eVvnYzSuErTbiULTzz6nn/92zNDZd8JIUWM4erX9h8UUnuEY1yhHurKRKF2UF3Bgbrau/uSD//aT/3Qs6/q/TXDvtr4a9q+Eq2iwldI/7wsOIiRvw6mXimpK+TnXcmrqyRJBvcaUVdJgqSFJEFr0LVKkLSGLK7eWSRr+lQkqfyqJIXeg694nGTgv96mGIl4DrhtST/c2NtKYHZ59QuPL3xvulMLcQUAqwJjF+942Q8/+8gjR05PX6jJWRFimZ7AMiit4Mm4QqBhQVBdGT2KP3V13dV7fuc3/9kVu7f3f5KyrwbVyah9NdYPn60j/ebg0M81Uq8yuzhXUVdDJa9659XaiO61Bv/SW4QWkAzlWiVJMiitkjVN1hMuo7pKUk4lcsjsPvTz9c9y9FcJMmRWggdPL//tE4vnl3wWZ7dEa+vkbS+/+eFvPUSNRYgMY7j69vKtnEorhGVcgepKcXAD/XNUF1MjVUuN667e85/+zZ2TWycyX5qTsa8KC1+N/hC6wUFJdYWBTjgy6ioBxvqHGNQZvbDgxmmmjKsWkgSJQEtgcKOBJK01y6qVr6vSH0eRcMr7zJPcfQvGH9w729AakFnTC6t/89j8oTMrtTGu0nSSNjUWIZK0yjeRlUQSMkXKRhKKv7csj6qktFNdeSwoCmPnuG3rxL/+xdu3DagrpIwliNRrd4NqJr/wVZJVnnz96zw7ODh6D4+2Vc7YZkTGqaqrvJT2QRXSSlrD/hySFhKgtToQQRt2rQYsq6Fyppm6Z1gSCQgBsTrwn1i/43L+628wshdEkpQfdOCjWcu5ag3+PMGhcyv3PTo/vVBD42qEuWTz3f/n3ZOTF9X+TAmpSKHAMiKJ+kNVH0co7lJFHkFGmVkqdiUtZWqgriR/peFFmQsOfvDdb7ru6j0j5srgBslI+abhbVr5I6cypTZcnryN01WvZBLbB2WctrpqpdTVYFhw6Lj9mOBq/yey0ip11n1NJUaEkYkH4IjqyhVbxTLrkTOdLz2xUI98dhm277viXe/9uYacLCHa5AgsKWkFWWllJOPKsHGFIF4YhFJlS+NvGkqOr9cLyEG5djhIvXrLT7/kh258+sgPleyrxJB9hazUq2Q49Wr4KOs3+XBRhsHfKqmrweXth/lGw4Ip46qXbtU/NUlpldJVphRV2TOhL7YgMuyr4Z/0zuLQmeUvPbGAhrHjmmvu/GevbdpZE6JESmApSCsnMUFo5bNXMZ/gsBxDndSVav8+RKCurrt6z1t++sX9zG4M/yFrdwP2VQuZdRyy7t784GCmd9W3u3rek466EmJNXa1vPxoWTBlXo8lPhdLKk67Ke4wMKa2RD6v3k+mF7v7HG6euevzIHa/+gR94WjPPnRAZBgSWQWkFc8nsGmHBKge1GFUUFURSbdRVhYbKkh+EyVQt/Mov3D6irpCWI0btqxZG+yhv7KgSHOxvOfLeG4oSvCTU1WDm/nBh0F5YcKMKQ4JR4yrVOjotrfzrquxnwmo/4WxkzvsfXwxlns5ZWRX/+y/c3djTJ6SUFmBBWnkxrgD7xlVQKe2ov7qy9Nqg3NFfc9uN1129Z7ToVNG4o/ZVopN9lYo/rhtOIzvKBAczU68yX1ocGapUXY3UYugFCVura8s5UhNrxLgqklbh6Kr0RbORFL82/+9NL59eiLtKe0W277viZa+4pckrQEgBLcMlGDwaV4HWYoBndSUao65g9jTxlp9+SYF9tfZXMVA0E6NbS748mAoOjpTFyphqqqJBxp8zU69GEtsH56CkrgankrSQCLRSYcG0cRWntBq+YNZnmyTJA8eXYpizXV7zU6/hIhCSiUSZBsMxQffGFXy/bFgwkn11JTm3Gqgro90GX3PbjZfvvgTD9tUg60IhFWiDsn218XPp3PaCou3pQwymXiEnOJhRTVRSXQ1WEE0wkp41YlwNrl5s0mr0Ynvs3PLMcv2LMpSy9dIdNLEIyaRYYDmPCVoxrqyFBVExpV1bx1RXV4LqqvhifMtPvwRZfVqG/pp50L6TlfqlnH01skvWTasYHCxNvcpUV0MOWZa6SobV1XBNrFzjaqCQVZzSap2jMyvxTt4sr/8ZmliEZJAnsITTmCDUpRWM9NuxV4NUOzMdduo4VB/frLqq8rHK76Kprp777KdfvvuSjPhg/w959tVQKpXIqRKefVCF0gw5o2UGB4tTr9LFyjESfxx4Z3BEXWFYXWG4rHyecTWQzBQ3x2YanX01yObtO55xzZVcB0JGSAss49LKTo2r6s5TiGFB2KnjIDk3l+rKY1GGcl5z201I91Qums+o9kmbWzIvD6Z2ybpjyzLoR4KDgz8seDmx/9pgMhwclFJXo0lXIlN6rscEa1KNs+Hp7SO8+OUv5CIQMsKgwJJ+NdqutArBuApDXcnuKKiuVK6B8qv3JS+4rveHkQT1ob8NlZca3VrSvhpxvEZ+iMLSDJAqfKUQHBw9+nC9q6EDjair/ikMDDgSFgRQPSZ4bLZ7bDYIWcPsqxF+8Pk3cREIGaENQOGpZ/KVQ/W9qocj7ZZ3RzTlGFBvdQWtOa9x3TN2b9s6kVZHKvFBW/ZVUm5f5RZtT8+2+LXB4S0HRGSmuioPC+pIq9ML3YenO9MLq+mEp32T7Z1bWjfs3LRryxicM7PclK44klyy69I9l+88eWKaS0FIn7ZR1wq2pBUcGFcIwrgC1ZXRXVTLmQrx3Gc/HQPZSBj+w/pfi4ZKV2dY28uFfYWBMQf3FZmHRt5rg+v7JxhSV4mKuhroI6QsRx6e7hw8VVRl6ujMytEZHDy1vG+yffPezVds8yCzyCDXPes6CixCBmmXb2JQWsGTcQU4rZJFdaV0LuGoKwDAddfs6f2hoHp7uvngoFpSOp2cGhCZPywpzZAufFXa1jA7sX2jqnsyWJ5eS10ph9Jmlle/+Pii/Dt6R2dWjs6s7Jts33bVxOR4C8QTVz6Dee6EDFEosLxLKwRgXMGXuqpy0OqHcKWuql9XUhNQsGkv3709SeSPqJTenvHDzM6DKLOvhsdPDS4dHExUUq+G3hncGCpPXemEBR84vnTw1PJSV3nHozMrn3xo7ua9m2/aPQ7ig8uv2sdFIGSQHIGl8GT0GBOE77AgfKS0IwJ1Jf+rAEpejQz73Gc/vSQ+WFi9Xak6w/qBRPmWOfZVXlPn/MEzgoOZqVdDrw22kGC0IkNhT0NldXV6ofvFI4tVXs1b6oq/m1p87PwKrSwv7N6zk4tAyCApgWVdWoHGlc19JbcUQezlQl1JXssp22nwz6M2T7owlWZ6e1LZvhqZCYbtqyR/8CSVZzaUejXy2iCQrGJwKkmRE6asrh44vmSq7czRmZV7vzN7897NN+/dDOKQS3ZdykUgZJABgWVWWiFm4woxqCvNNjioubqqfMlViw/mbCeR3l50GA37KrOD4YBuyq412k+9Gn5tcKPPYHmcUU1dHZvt/t2Ti8ZrSj1wfOmxcyu3PWPCyzuGhBCCNYHVLGmFUMKCsJTSjkarK/XXBgf/tm3rhI34YOZMSqszZJZuL9kFJW8mYti+asmlXq39uTXYCaequlrqil7GlaVH2+mFbi8ri1YWIcQLbfuZ7KitcQWqK+/qClrTVhnWTHww64coCuH1aanVvso/XKrw1WhwMD2TVsZrg0bU1bHZ7heOLDgo1/nA8aWHpzsvf8YW1nEghDhGokxDFNIKgeezw3dKO2qqrqoWZRhhdm4ROf0HU5S/P7j286Rg59zopGTnwVL7Kk1LLji4Nn7qtcGRXaCormwbV2lmllf/xyNzN+0ev3nv5s1jCQghxAnFAku+wrvuvtU9J/jIiI8spR3Bqyu9j8bMa4NpJOqLZsYHIR8fLE1vT83EmH2VLiuaoZ96qVdi488Yfm0wrzBYMY+dW/ni4wsaVRiqc/DU8mPnVmhlEUKckSewQpBWcJFxhWDDgnCtrmxrsqAKikoaaSOCSZiNDyqkt6OCfTVSmqG/GQZ2QGbqVUbVq6w5S1QTXeqKLz6+8Ng52fKhNuhZWVdvb9921RZaWYQQ26QFVhVphZhigqhuXCG4FwZBdSVzcRWpq8z4YMqa0nx/cGTYvC0lqzMMnm+BfYV0aYbM3PbC4GBu6pWEuvJoXGVO5vdnZm+7asvV29shzIcQUlcGHzGBSCuEYVzBpPkEJynt0K0FT3UltXvRBkrvD8rGB3PS2zM7D/b/UKDJkkz7CsBwWVH03xzMNrcG1VXJos0sr/7d1KJf4yrNUlf81aPztLIIIVbpCSz70goxG1cIMywIqitlJC7C/AINo5skieX44NCAqd+m4oM5ifNJqX01JPhGirbnTHgtsb3wLA6eWn7g+FIgxlWanpXF7jqEEEu0rb8kCJfSCvUJC8JSOQYYUFfye7lTVxWvn6xflRVosB0fXN++JL09yR4kSW2fa18lw1bYRtF2AAMddUaHzV9P1YbNvmB3HUKIPSSyEKxLKzgyruC2FgPiemEQVFcjlBdo2Pi7xfggytLbhyVTtn0FSftqsKxoMuqKSQYHAzeu0rBRNCHEBoUCKxppheDDgqC6Ur6E9M7L5MiZm5WXVzceHyyednF6e4+WvH1V9uZgQXCwesNmX/StrB++cjO76xBCjJAvsLTrL8BcTBA0rkwdKAZ1ZakZDnQS2/MSsGQKNBRgLj44OmBi1L4qyG3PW0+DDZt9cXRm5ZMPrbC7DiHECCmBVcW1QgONK0Surixka8WvroDcBKzKBRoMxweH09tH9x2eqbp9lVlWNLWe8RpXmbBRNCHECAMCK/frJs6YIJznsyP4FwZBdSW7u/y7+0oJWNJjKl78hTukOw+q2ld5R3ff98YN/UbRN+0eZx0HQogebSAkaYWGGFfw8MIgqK60J6MgaFQTsKrFB4vKKCTDdVMzBNOwtaVqXzlr2OwLNoomhFShHUomOyIyrhBDWBCu6zjUSF2VV8Ayl4CFSvHB0WELqjP0z3FAQm1owVL7aiS3/e+mFutnXKXpN4p+8ZUTtT9ZQohZRnKwjOdaIeiYIOINCwK2i12hlupKbpec6FjlClg5OeOKE02Pmzr6aLZVktJlCTIqPRTYV/0lWuqKzzwyX5uMKxkOnlo+NtN9wzMvYriQECJPv7aeUPjqUjCu4lJXQlkeiWq7628sZJed6kpmPiIvGJeT4Z6xjdSBZL6fi7eReX8QA80HR8dMpbcPnWKSPYF1+6qJ6qrH6YXuZx6Zj6i4FyHEOy0FaQWYl1ZSqkhUHkeUaSOEm3QF5+UY4FFdFQzgTl0pZbgP/bUsAQu6CVia7w+m44MZftdA58H1vfLsq79+dKGB6qrH6YXuFx9faOa5E0I0kO4OIWtchSatYMi4EoWbV9xdfmPhXF0Jt+rKUiNnaNWOH9kxyfn/UlRMwFIed+CXGfHB/OoMBeM9cHwp/O43Vnns3EoTMs8IIUaQEFgepBXMxQQdGFfhJV3BoLrSW/+I1VVS+FcMZS+VvOWXh3YCVkb/QZn3B1MnM/T6oUhPLqX5hJhZXqW2ABBXFyBCiEcKBZZZaQUYG82LcYVgw4LQt6CarK4kSdVwL81wzySRM7wS+fFKt8iJDw7NJH1S2bsLCoseS13xlalFrgMhpJQcgWVDWhmJCcKfcWUxLAiTLwwKyzuWfJTxqCsh+QZgUYZ76UGH38vLPY56AtbohPIKuCcFP5KID/bsq6WueHi6E//jzgyPnVtZWqHWJISUMFymQe3l9kgqvFeUVojUuAJs1HEQKvOR3bGaujI8H1FUmXOYkRrumRnuxfNJSa6qCVg5vZmHNlaKD/am/di5RqdejbDUFY+dp9wkhJSwLrAaIa1AdZXxW9svDMKyujJWrl3uoFrZU0nFW6k3iEQCVu4Rhciu5D7y/uDGsYbyzKgnRjg609BXKQkh8rRDl1ZwZlzBfmtCpcO5T2kH1VU+ScnfpSkwxrQTsPIKNKTjgwkU3h/s98Y5PV/bfjh6+G0QdGBm5dDcytTi6tRid6ErAGwZS66cGLtyonXd1vZzJtv8gAgJAflbMV5phfCMKzRCXQk9Fy0gdZVVwFPnFcJERY8lZQMmWZtlD5LffzCnZKrIXJkaNxyMiIWuuO+ppfvPdRZSbxssdMWhuZVDc9g/vbxlLLlt5/itl45vYd15QrwiI7CMNycJKiYI+60JlTZWOZYbWWY1pR0hqKvymRY0StajIMM98xSSrHIRqW2S3BoTqQSsjPqiA+MMDsKXB0Ng//TyfU8tLUh8Fgtdcd+ppS9OL99+2eZbd45z6QjxRbHAslHh3dRoNK5M7euvHAMCUVdCYQpJ6ZZSrxCWHERi6yT/6FIJWBvj5DVeXIsPTi/QvvLJ1GL33qOLU4tqWV8LXfGpE4sHZlbu3jexc1OrpmtDSNBkCiyVf7DGKq3g3LgC1VXM6kq2C6GRVwgLdh8qzYDiFoqjB8tMwMrrP6j8KCAW+OxTS/edWtLe/dDcygcPz922c/w1l23mYhLimBGBFbi0QqDGFRTDggj+hUFEp64qn8jwVqk2z6MkEEMhOJ3i7EqvEA4cGZlTTc8w90cFCVjaVeaJWfSMqzS9iOGBCyt375u4cmKMC0uIM/oCqyHSCrEZV/CQ0o4Y1ZWotItNpyZxPmZehvtgNDAvAQtuFoXk00tm3z9tsjHR1GL3g4fnbt+9mVYWIc5o+5RW8BoThKVSDkrbi+D2tV1KFDGrq8paSbVGg3xyfV4l9+x91itgFSVgUWD54NBc996jC9MdK3lvPSvrzZdPXLeVVhYh1pEu02D2JUFAv+VzIMYVIgkLguqqcBcdkV2gcjI31q/RkDtskrtvIjeBpPR0qK/cYsO4SjO12P3wkblbd47fftlm1nEgxCoSAsuPtEKDjStQXWmOr7qL7OJY/B6SqdEgPSGRvRTJcI/nweyyZGASerczMcGBmZVPH1+0ZFyl2T+9fPDCyt37ttDKIsQe+QIrqArvtqQVLBhXMCmPEEJKO5qqrpSrjEpSnEcumWUuHyuUqUzKDHdfLHTFvUcXDsy47vY43VmllUWIVbIEVmjNc+pjXCHEsCDst8FBlN5VwXeO6teRqa+vRPqjUZo8v119cWBm5d6jCwv+Srnun16+/1zn7n1b2GCHEOMM31Q+pRWabVyB6srAxDTPpWRKeraOkhtUvHG/zXMVknTWe1IwGcYH7TLdWf308UX3xlWaha746BPzz5ls371vC60sQgyyLrBsSCu4jwkiCOMKVFd5fwtDXelNCZpWT5J1FGOeVpKrkoomRPnkFfm+N844MLPyyKFZWlmEGKQdg7RCzMYVqskjRJXSjuov6JUdwqG6Up+FEaupkASSRbBy/z74m6T6jU6UmO6s3nt08dCcf+MqTc/Kum5rm911CDGC/D9WnPQl9BkThLpxhTqGBRGfutJcJYoIgAlYDgnQuErT667DRtGEVKdUYLkqQ2oxJggXxhWorvypK8nuhEbVVeAv3CUVfkuMY6rvjRvYKJoQIxQIrIZIK1gwrhBoWBBUV6VTyvyVDUFi0sYoLBBfmIzlZHoNp2LDZl+wUTQhFckUWDakFcJLt0KExhWiSmlHLdRVQBisHEEcEJdxlYaNogmpwojACl9aIWbjCvGFBWFfXZk31VyrK9UOg/bIrT5a5GOxuqh5Frpi/5nlGI2rNGwUTYgefYHVYGmFEIwrUF0pzM38O4NRRcQoiMLGasNmX9x3aun+sx121yFEnrY7aQXb6Vawk8wO38YVYlNXvsKCMKCumHpEKuCmYbMv2F2HECXkyjRUr5VlUFohZuMK1cKCCC+lHVRXhAA1Na7SsFE0IZKUvYIrhKJrJSR+JioZVzqjiYxvX40KotWdp4pJV0LlHEq0CNUVYlVXQuM3xC73n+t8+Mhc7dVVj56Vdf+5Dj93QgrId7CsuFZwnm4FO8YVGhkWRJDlGOBdXQkh8jLFA1E8AiI3z71g9kSO+8917j260LSz7p3yC7dv4gVASCZZAisCaQVrMUGYz7hC7ZOuQO/KDSI/wV0w990TzVRXPaixCClgOERoJSAI6ZigkLaO7MUELeSzK4cFhf7uVFdSs1L9lQ0JZlIOifwlEpoBRao1KaY7q586sdjkFfjUicWGBEYJUWVdYIUprYT2aCU/KN9L5+hCQohUrMVgLaW9sepKt3+OEEEbXxWENlHg3qOLgfcWtM1CV9x7tNESk5A8WirSSviTVtAcLVLjCurGlYeUdjRWXWmupSFEwKM1ikNz3UNzK1yHQ3Mrh+ZirVZPiD0kG3mK3FwrfWkFo1rNnLQKwbgKMKUdiu8wyh4lYHWl05jGdmRN/QWNogihgK/zqAX3PVWHQu1G2D/NpSBklFKBZU9aCXMDmogJwotxBW9hQaV9RQWzp07eldp5i4GdkgojFS1GbqRSFKZeqeinyXGqrQymO6u0r/ocmFlpeKiUkDQFhUblXw+EyveFlwrvGnsJ+4NYLSKKsFPaEZG6EgK2yxiUlUpIqofyBis1rEmsHKW1Ppm1I06Ot0BSMCg2wiPzXBBChsgUWDWWVqgqa4wNUi3ry09YEI1SVwZrIihtX6DnhsdJim9L+cmLtW7QdCAUoH3FBSGkmMF/myrlsKNSQBAVXxLUNq6MRPSaERYEvat0XE/k/UqJ6rnwBZdIRtBQDJ9u/r90An81MiimO1yrIaYWWayBkCF6DlZeGofCTyE/hIsypBp7+TCuEE5YEJ5fGESoeVdrG9uKEfb8qv5sOqu4sLS60BXzHQHgok3JRZuS7ZuTcamuoVkuVNIPCw4Xc0/WZVqSZ5qF4mktdMXU4up0Z/VMZxXApZtaOze1rpxo+e03zJQjQkgxbQsaKH9jD9IKwWRcwWdYEHDRYRA1UFd6gn3jJNJCpahNzToLK+Kp+e6TMysXlrJtgEs2t666ZGzvtta2TcnaDJKRQwsMZk6VTWBNWUEkSLL1o299tdAV95/r3H+uM7WYndxz5cTYC7dveuH2TV6UVt6sGsuZZTpYhAwx/O9iA4lWqJ20gn/jCjGEBWFfXSnMzY66quxkpZPZV1bFQ2c6R2dKvq3PL60ePLV68BSuumTsObs3jbfK57Ex2cysq/J5ensqLXTF/jPLX5xeLnaJpha7nzrRve+ppdt2jt966bhfQ4uwnjshI6wLrFikFUKLCcK3cQWqK5WTqupdaVAw7qn57ref6nRWFQ79+PnusZnVH9zVfual7fX1GxVt6y8JjvppfStLAOg5V+vaK0s6+rGwDs117z26IP9tvdAV951auv9s5+59W67bOgZCCAmDdu2kFZpkXKG+Ke3wq67WVUuSfx0PiZeyOgujLKyI7zy1dEYrL7izKg6c6hyb7f6TvZu2bkoKTikp/9HICQjVEzHIQlfc99TS/ulljX2nO6sfPjJ3687x2y/bTCuLEBIC6dRZ1X+z2kjhCj8miNDDgqC60lJXKnUPMrVIThrWUB2Exy+sHD7XWVmt5A89Nb/6P48sP2tX+5k7xsonJoBkIBmr99cBEysnDSuBq/cKD8ysfPp41bbB+6eXD15YedPeiedMtkEIIV4ZfAxVtqwQuLSCjroSPgapQ1gQPtWVmb2yDKy+Esn1tjZ+MSh0evstrIgHp5fOGnqhvdMV3zrZOTbTfe6eTdsnWv2jj84rSQoS7fN+NVJu1B4LXXHv0YUDM2aqKE13Vj/6xPxzJtt379tCK4sQ4pHCMg3ZBC+tUG/jCrVWV9rTs6CuhqecZQmp8ej5lccvrFQ0rtKcml/9m8eWnn3ZpmftamPYuUrnuQ+aWCInDctllPDAzMq9RxeMlzw4MLPyyKHZu/dtoZVFCPFFu2opdliQVog0JggD7lcUYUG4L8cAL+pquEZV7yd9vyfb3ckMEc4srz40vTxj8z327zzVmZrpvvCK8R0TA11w8oVhxjzX07CGf2rLxJrurH76+KIp4yrNQlf0rKw37Z3YuYndfgghrpH8553f5jly+5qKCaKWxhWorqT3yts+Gfn/khw5v/LYuY6Dm/nc4upfP7r47Ms2XX/p2OYxJMlwgauRNKzezxIkYk1ZZRRzWE98Nz7V/dPL9z215KBW54GZlUfm526/bPOtO8dBCCEOKRVYlFYhGFeIPiyIWNSV0K51lY6szS6Lh88sz7otwPidpzqPnVt54b7xvVvH0BeEmWlYg81zXEUJpzur9x5ddNm3bqErPnVi8cDMyt37aGURQtyRJ7CUooHwJq0QWEwQzo0r1Ftd+cyFLxUZAglyXiTsChw5vzI146f97VxHfOHI0g072zddtmnz2Hq3nFQa1kY1rNFzHl4Xc0rLmXGV5tDcygcPz922c/w1l20GIYTYR7pMg9PmOdr7GiwN76R5Tk3CgjDzwiDCUFej2UnJQLfkYZ8nJz3p3NLq9850Flc896p7eHpl6kL3+XvHn37xQD3hZEA4DhRrKIkSVmZqsXvv0UW/7WV6JUkPXFi5e9/ElRMsSUoIsYtEmQbP0goRxAShpV1c5rOD6kp3r3UVJfMi4cqqePzCytFZP8ZVmtmO+Nsnlp528coP79s8PiYfJUxgtOLoZ59auu/UUiBrMrXY/eDhudt3b6aVRQixSttmNBBBSytEa1zBYVgQllLaYaGUKMxEBodl08Bf19/My3mRcHpx9dFzncWuZ+MqzZMXun86t/DD+8afNjlWFCVc97dGhJWokOQegnGVSc/KevPlE+yuQwixRFYOVt2kFaIyrlCHsCBiVVdZJBnHHX6RcGUVj5ztTIcnI/osd8X+J5aeNjn2T64Y3zbeyo4SpvytKiZWlb43bpha7LK7DiHEHsMCK0xpBe/pVojEuEJTXhiEXXUl/yKhQHJmofvIOfPlQ23w5Ez35PcXn7N70w/u2jR4DqMVR4VARkEsBVQbNnuk112HjaIJIcZpA6Z0FSKUVojGuELFsCDqq65sWGX9Uxlp+TyUqbTUFUfOdc4EbFylWe6KB44vP3mh++KnTUyOt7CeW1bel1CO8I2rNGwUTQixQdtWDjtsSCu4TbdCE40reElpR1jqaiShPSvP/fjsytRMHMZVmhNz3T8/NP/cPeM/uGt8bTESQGzEBAWw1upZJUoYkXGVZv/08v3nOuyuQwgxhXSZhmxCk1YIrnmOY+MKMSRdQVckKeyoK+aEQFme+1JXHD63fGE5ShnRZ7krvnZs6dDZzkuu3HLpRS0Mdy1Uzb4y27DZF/3uOmwUTQipTl9gmYgGInxphSYZV6C6ytpQw4HbyHM/Mdedmo3VuEpzZmH1M4fmnrtn83P3jg8WxMKwiVU8iKWGzb5go2hCiBHazhOt4EJaofbGFUIJC8LSC4Nw/aahyC7W0Bcc8yvi8PmV+U5NZMQg3zy59PiFzkufvmXX5lb/5GVMrHoYV5nn9dEn5q/b2mZ3HUKINkr/RKu3tIIr4wphhQURYEo7LKgrxbMYTsOamu0enY0pmV2VMwur/+N7c8/eNf5De8bHx7BmYhW+Tuix740bet112CiaEKKHjMCqHg1EI6QVGBaUn2dIbxqK7EXsyaulrvj+uc58nInbqnzn9PLxuZWXXrll10VjBa8T1tW4yjzTXqPotz6NWVmEEDWK3W+Rq2PUcq2E3Aiikh7SjwmKsqGElDAKIixIdZX+m9D+1OZXxIPTyw1RVz2mF1bve3T+9EJ3fYWEGFZZC13x4SPzTVBXfQ7NrXz4yHyNvTpCiA3yBFbI0koYGlC4Na7K9Eq5ZIkw6Qphq6tC5jqrD59Z7jZIXK2x3BX3HZ6fnu+mL7ueugqw9Y1tpha71FiEECVGBJYoUkWhSStUGVBmegEbVxVrMXh7YTAaddUVOHJ+pYHqqsdyV/zl4fnlrsBwL8J7jy40UF31mFrsfuTJhYZeEIQQdfoCy6Bl5UpaaQbIHMcEHRhXZsOC2gE1MZqZbqwcg3QbHAPqau13x2a78yuNtiuWu+JvnxjSE/unlxsVGUxzaG4lriL1hBCPtCxGAxG8tIK/mCCcG1cIMywI14XaJV57nF8Rp+Yb6tMM8vj5leOza4qq1wOHa1LvFycJIQZJ5WCJuKQVjObFO4wJus9nD19diSDUlQCO17oigxJfP7EmqvafWaawALDQFfvP0MQihJQzILCEqiGilK1lSVo5jAnCpXHlOJ/dV0q7cLqjXMmu5a44t9TU3KsUx2e7M0urAO4/2+Fq9OBSEEJkaEPnH6VKFUeFhWGdN89xUT40a5CKZa4QY1gQbtvgjO51nupqmEfOdKYWu5G2cLbBdGe1sZn+hBB5KldyRyTSCvbSrWDO/Sr+gVlpBaqrzL1mlhkIG+L43MrBZue2p/G+IGNznU1nlzad3ciK6+zY3Nmxubt1Ez8dQgJBUmApSSul76ewK7w307hCc9UVgIVmvzyY5vhsd2qBhs0QvhZkbK6z9eGzE0/Ojs1lhym7WzctPm3b3A07qLQI8U6pwLIUDYQFaQVjLwkiZuMKkaorOzsqqisAy0zlTjHP8KDvBWktr1789VNbHj1fvFlPgW19+OzCNZdceN7u1XF2qibEG3kCy140EP6kFQKLCcK5cQWTYUG4qdIOl+qKkACZmJq95KvHW8sKsm7Lo+c3T82cv2Xv4pXbuICEeCEtsBosrUDjSnp3R2FB6L5pqKuuqLuIBIfmHOVgjc11tn/1xPjJeY19W8urO750dPHKbReev5sRQ0Lc0xdYVnUVHEkrRBETRHDGFeqlrrSFJtUVCYmtD5/d9u3TSsZVmomp2fFT87M37pq7YQeXlBCXtCmtfEorODCuUC0siBqltIPqikRBFeMqTS9/a2Jq9twtl9PKIsQZWTlY9qKBiFFaIVzjCn7DgvCR0g6qK1JvJr89fdHDZyoaV2nGT87v+uwRWlmEOGNAYFm1rOBMWiFO4woMC1bd14y6otQi3th0dumSrx4frG5llv6riOdv2dvZsZkLTohV2gClldWhLEgr1DUsCA8vDFJdkTCY/Pb0toOnHRxo09mlXZ89MnvTrpkbd3LZCbFH20SxUETTPMdvTBABZFzBai0GUF0Roopt4yqTbQdPb35yhlYWIfYYycGyalmB0qraagceFoSHlHZQXZGIaS2vbvv26a0Pn/Vy9J6VNXfDjtkbd7EkKSHGKSvTkEsjpRVqbFwhvqQrmCp2RXVFPDB+cn77V0/kNb1xRq/3zrlbLl/ecxE/FEIM0g4m0QpWCjrQuJIaIcywIJy8MEh1RVzj17hKMzbX2fn5J2llEWKWtvSWsVV4b4q0guV8dlBdEWKQianZi//hlHfjKk3Pyrrw/N3srkOIEWQEVoOlFeptXMFf0hXspLSD6ooES2t59ZKvHp+Ymg12hmNznV53nfO37KWVRUhFigUWpZX6UIEYV6hjWBBUVyRWNBo2e5zq+GcOs1E0IRXJFFgRNs/xIK1QX+MKtUppR4X3GQmpzNhc5+J/OBWycZWm1yh6ec9F7K5DiDZyZRrqIK1gLt0KMRtXCDUsCKorUj+MNGz2BbvrEFKFnsBS1VUIoi+hWWkFrzFB+DCuYFYeIbiUdlRogEhINcw2bPYFG0UTok3bWhH2wu2jlFaotXGFuiVdgeqKeCNq4ypNz8qav+FSdtchRJ7hEKExywqUVubOqHpks3rh03qntIuKnyEhfbz0vXFAa3mV3XUIUWJdYBmzrGDLEmuitEJwxhVqpq6EwqkQUoazhs2+YKNoQuRpe4oGwqe0QgVxE5NxBa/57IgspZ3qilSgtbx66eefqJ9xlUnPyjrziqezVhYhRY+F1E/E+n/yiFwtIlS2z9hQqPhMZscUEkcQmhlXRvLZyw0ev28LirKl0zs1qisSHJvOLl32mcMNUVeNPWVCVBkUWELLtZKXViIeaSXKjiBsGlcWwoJV5BGMhwUdvDAIqivihp53VZt8dp44IcbukQqWlZD8sdr4oUsr6EurUIwrRXkU5QuDeupKUG0RVZosMnoai9cAIdk3iOL21qKBCExaobJSVJtDCMYVzIsz+aNXSWnXLscglBaHkFEmvz3d8DDZprNLk9+e5pVASBpJgSUaJ63cxQQRjHFlL+lKVEtpt1OOgeqKVKO1vHrRw2e4Dhc9fIaBQkLSlAqsQl1VMdEKfqUV5KQVLMcEgzSu1AJn1YwrFyntKCx2RXVFdNj6vbMUFgBay6tbv3eW60DI6K2R83PLlhVCkFaS6VZeY4JVjStYNq4QRtIVypKuqK6IeWhfcSkIKaCd+onlvoRCNZve+LA2q1vBUEwQsN9YEJab5yAYdVVliQjJZvzkPO2rPq3l1fGT88tcCEIG6Ass+TSX8l/kbE5pBVfSCnadp+q7e+kwSHVFzLH51AIXYWRBKLAIGaRt3bICpZX0+NoVUNXOwmtrQkfGFaiuiFXGT85zEQZpn1nkIhAydFNk/MxgX8JopBVoXMmNUE2cBaGuqsyQEJJNq8OAKSFDDAgsb5YVKK10xonLuIIndWVS/1lnoSseme8eXexOLXTn17+tnrl1bN/E2DMvGtsyltTp0SNDa3l189TM5pML7bOLg+WmOjs2r+yYWNqzZenKSbbDC4RkuctFIGSQtkldBWuWFWKUVqiRcQWbYUEEkdLuVV0dmuvun146MLOS9au1Hz5nsv2CHePPmWzH/9gpZ2yuM3lwevPUTGYi+aazS5vOLm159Pzq+KmlKydnbtrZ3bqpCcsSMuxLSMgIeQ/rYCwrBCat0HjjCnVMuvKnrqYWu586sdRXUQUcmFk5MLNy5cTYmy+fuG7rWMRPnTImvz0tWbuytby65dHzm6dm5m+4dObGnTVeE0JIdIwILNuWFSit9MepbjuhGWFBpX29GleffWrpvlNq/+6fWux++MjcrTvHb79sc/2ChpvOLl3y1eOqXkhreXXbwdObn5w5f8vezo7NNVsTQkik9ASWvSYwQzvYGTwcaYWQjCt4zmcH1VURU4vde48uTi1qpq3sn14+eGHl7n1b6mRlTX57etvB09q7bzq7tOuzR2Zv2jV3/Q4mZhFCvNMOKxoISqsojCsEk3SF6F4YXOiK+55a2j9dtWbQdGe1NlbW+Mn5i79+ykgSz7aDp7ccPn/ulsuX91wU9ZoQQmJHJWGW0qrKaQoHnpOpQeoeFoQ3dXVornvv0YVpcy+0759evv9c5+59WyJNfm8tr2779umtD5vsZDc219n5+Sfnbtgxe+Ou2K2sn3zlFT/1qiuedc3kxduUP98nTy48eHjmY3/2xN8fZKNAQjwgcdPqfBW5bZ5jXFrBXLoVYjau0EB1ZUt4mTKuMkf+6BPzz5ls371vS1xW1vjJ+e1fPTE217Ex+NaHz048ORuvlXXxtvZ//dV/fMtNO7RHeNqeLU/bs+XHXrT7d/7siV/9L9+LcREIiZpCgRWQZYXApBUCiwnCvnGFSMKCCFBdHZhZ+fTxxWmblRgPzKw8cmg2FivLhnGVpmdlLV657fwte6Ozsj78jmdVUVeD/Is7nj51cuF3/uyJuFaAkNjJeugIsfafAkLZtVILCAq5A4qqMUFZSSTMDVXyAzlhVCo4hN0RhKi0Ys5S2p2rq5699NEn5qft17nuHevDR1wcqwoTU7O7PnvEtroaPNxlnzk8MTUb8pqM0HOeDA74jruujej0CakHAwJLR1eB0ip7NI2hhIYwgtwglkeoGBYU8qcsRqu0y+9bZZK6HJhZec+h2czyofY4NLfywcNzNmKRBh43y6s7vnR0x5eOWgoLhnZcbX7yVVeYHfDibe0XGfLDCCGStAH7WVYwFG0MPCAIrzFB2CjlUL07dRQp7ebV1XRn9dPHFx1Lqz4LXfGpE4sHZlbu3jexc1MoobGJqdlLvnpcpnyovQmMn5qfvXHX3A2UGoQQ67QDS7RCeNIK5lwruEpmR+j57Kizuto/vXzfU0sLXc+dDQ/Nrbz3kdnbd29+zWWea2+OzXUu/odTIQTpWsurF3/91MTU7LlbLmd3HUKIVeTzYT31JQxfWqF+xhXc5rOjNint053Ve48uyvS9ccZ9p5YOXFi5e9/ElRN+SpJuffjstm+f9mhcpRk/Ob/rs0doZRFCrFIqsPw1z2mWtEJdjCtYDAsC5qq019a4SjO12P3g4Tn3VtbYXGf7V0+Mn5wPbUGwbmVtefQ8u+sQQixRILDqJa3gJd0KtTKuwLBgNvINmz1y36ml+892nHXXCdC4StPvrsNG0YQQ46QFlgNdBZVEK1BamRjHt3GFSNSV+sWs0bDZF2666+g1bPYIG0UTQmzQF1he+z03UVrBkedkZBCnYUH4UVfq0qpiw2ZfWG0UXbFhsy96VlY9uusQQgKh7dOyQjzSCtBvnkPjSmF7e9n3Jo2rha7Yf2Y5FuMqTc/KeuH2TW++fMKUlRWdcZUm9u46hJCgUOyqYV1amUiO8SOtEFhMEP6NK9QzLGi8YbMv7j/XOTCzUr27jpu+N26oU6NoQohf5B6stbKsVA7nPSYIf4WynOazIwp1Za9hsy+qN4q22rDZFz0r68Lzdy9eua1O50UIcUmZwKK00hiNxlUd1VVtjKs0vUbRb7584oXbFWpv1sm4SjM219nxpaORNoomhIRAjsAy2zyH0kp1KI/jRFREFI5S2he64t6jC7763rihd473n+tIdteppXGVZmJqdvwzh8/fspdWFiFEleEnqdl+z6K4MXPlkqEVm0ZXGlOmBbXwbFypzqf89IX624I2k66E0JyqyhXeq9JZb3XVp9co+tBcyXuRWx49v/PzT9ZeXfXoNYqe/PZ0E06WEGKQdYGlr6vypZXKL1QO611aCYkjCENDCbn4GsOCVvadWux++Mh8LcOCeSx0xYePzN1/Llc8bXn0/PavnmjOgvTYdvB0A8+aEFKFlhPLCuFKK8CCtBI6c9NMZg/DuFJ+W1Do7+5WXQXY+sYB9x5dyKzv1Ux11T/3LY+eb+a5E0I0UEre1LasApZWQmgOKLSPayq8GEDGFWyEBb2oq9HjLnTFvUcXm6mueqTF5baFlYu/fqqxCwJg+1dPRF3oixDiEkmB5cmygkbwzom00k+3shYTNG9cIbiwYJWkK8UapPvPLEdXot0sC13xqROL/b/u3NR69rdOBd5b0AENl5iEEHmKBZZvy0o7eFc6st6YBtOtYLXrsxHjqolhwR7TndV4q7Qb5P5znX7C+7Nmlx9/dIZrMn5ynoFCQogMmQJLRGJZIQBp5TgmKGNcVV+EhoQFc/etUynRitx/bhnARS20vnuGq9HjokcvcBEIIaUMCqxC88m2ZYUQpBUsSKtgYoIIwLiC2bAgLCmzgnfomsb95zoLXfHM8eR7361nQVENxk/O2y5R8dd/bzgQeWF25e8P8hMkxCk9gVWmq6xaVghHWpl6SVBpNJmhSneKxLgyHBasknSV+9tDc90m57anOTCzMvHkLNdhENsL8uDhGbMa69/9/mF+aoQ4pqUbCjRnWdVeWsFcNYdojCtEFxbs73tovhE1ReWZWuxeOLXAdRjEwbuEb/93Dz542EzS2yc/d+x3/uwJfmqEOGa4VU7RV4/Rf9PrVN6yMbLBdjf2R7NShQHWXxWEWeMKtpXZ1EKjXx5MM7W4uvP4PNdhEAdV7C/Mrrzy5+//yVde8VOvuuKWm3bojfD3B8987M+eYHCQEC+sC6xApZVwOrKoMgFhbjRDQ5mPCaKycYXA1RWA+aYXIhjlzPLqTq7CMGOzne62TQ4O9MnPHfvk545xwQmJkbbFTsxDg1mzrGBJWsGoHoK7dCtYMq4Aq2WuYDUsCPnWhEzAGmG6s3ol12SYsblO0qHTSQgpop36ieknaaOkFWphXKFxYcFBGtV5UJKpxdVxrsIwrLlKCCkmXabBEMoJ7LCWww47pa3Cq/Bu6lXB6vns0aorAFdOjPG5QAghpCLtyCwr0LXSXpPwjCtUk0ewHVUkhBBCNGkZG8m2ZQUTfQlduFZw3TzHVMaVe+OqojyiuiIkJLZtu4iLQEgfEwJLU1cpRgMr9iWsJK0QaPMc2ZigjQqiVstcwWsNUkKIDtdddyUXgZA+bf1ddTwA59FAVAwIwuhLgjBZzcFKMjusF2JAyGFBqitC9Dl0aIqLQEgfdYGlGVsJJNEKYUsrxFSFAcYzrhBCOvyhOVZyJ0SH2VkWpCVkAxWBFZxlBXfSCmFUeLeVzI741ZVl24wQQghRQSIHSyd7HTYT2PPHN9CX2mz9BZgczWIyu+V8dlTLmgJspsMPH1oAJ0/yuUCIKt0OO4ITMkS+wKqkqwKRVsK3tJLsIW1kiYS1sGDlfPZw3xbMOrWTp/hcIESVztIZLgIhg6QElmNdpVws1OzbfPkbi4oxQWFmkgalVQ2NK5hXVwAef5zPBUJUWZx9kotAyCD9Zs/aOSjqO5qqRCqqzyfsMqRNzrgCnLYmHPzbI4/wuUCIKkszT3ARCBmkpeVXwYllBWtFrRB685yaG1fwHRYU+WcnsLiIgwf5aCBEnoXz319dXeY6EDKIRqFRofNuoJFKpILSSmkojb3cZFyFFxYc+fuX/xcfDYTIM3/hMBeBkBHkBZZwKK1kfxyJtII5aQVZaaXT98a3cQW3LxsWnN358zSxCJFk4fz3l+dPcB0IGaFUYFXQVdajgR77EsLwgELoL1HJJsJQxlXwYUFT6qrH5z6PxUU+IAgpZnV1+cKpB7gOhKTJE1iOdZXDaCCMSCthbECLMUG4M65CDwsWJl1lDr64iE99mg8IQoo5e3Q/s68IyWREYGnpKsBkJVJ70UBYkFawLa1QISYYg3GFYMKCaR4/gr/4Cz4jCMnj3ImvMDhISB69Mg26NRrMNs8x0OIGcTTPEUL/oGbmYKLntHVpBdirxVA+PQFgLRPrda/jk4KQEc6d+MrC+e9zHQjJo+2kkNXabko/Vp9YFH0JzVW3gj11ZSRpzHJzQNXdNdRVj4MHce48fuLNmJjg84IQAN3O7Nmj+1m6nZBixrD3JQqbh2hZwbe0Ao2rwEaoYlxl7X7+PL7xTWzbhj17mvmYuOjRC2NznWaeOxlh7ux3zx37cneFnQcJKUFOYDmyrGAgGoggK7zXQ1qhGWHBzL+trOB7j+DgQUxMNFBmUWCR1dXlxQuPnT22f3HmiBBdLgghpbSLfmlWV8GyZYW6SyvQuHIVFszb9tx5/Plf4H9+Dtc/E1ddhUsuwVVX8SFC6kq3M9vtzC4vnOwsnlmcZSccQtRI8NxfGf2Z8b6ExiwrUFop7lgX4woVw4IwoK5kNxYWdsRopQnJHbUT3YQwvRchhDSLAQfLRr9nY5YVrCVawZ+0gs2YIEIxrhBVWBBV1JWlzDDdHamuCCHEH223ugqWLSt4llagceV4BPthQdmNI1JX2nKW6ooQQmRpa+3lz7ICpZXibrakFRgWNHQgqitCCKkhSgLLjWUFm4lWqK+0gquYIELMiK9ei8HWsZyHFKmuCCEkAGQEVpi6CgihpoN1aYXIYoKoWVgQ/lPaoSLLrIgkqitCCFGmQGDp6SpQWukMGIG0QgzGFeIPC0LzhUFQXRFCSECkBVbxE1zzd8q71EFaIY6YIGIxrlCLsCDiUVcVX+0khJBG0xdYLnUVYu1L2ERphTDStoyGBdGclHZQXRFCiBfaDlOsEHFfQhfSCuZigmiScYVgkq4QWEo7qK4IIcQXWTlY5lOs4MeyQt2lFWpvXKFxYUEErK4orQghRJrBSu7FWzavL2FA0gphxQQBPzVIaxgWBNUVIYTUknYwugqUVrI7W4wJIhLjCpGEBYGgyjGA6ooQQhyRV6ahqX0JjUsrGM1kB40r2A0LIviUdlBdEUJIBIwIrAb3JaS0cjCOY+MKtQsLguqKEELioCewAtdVqIW0gut0K9C4qrI91RXVFSGE6NOuUZaV+vhRSivU37hCXcOCCCylHVRXhBBiibbi9k2zrOBNWsFqTBDBJLMjqrAgwktpB9UVIYQEiKTACqAYKaWVsRNsrHGF2oUFQXVFCCFhUiywatPvmdJKeqhojCvUPywI50lXoLoihBAzZAqsevUlDFFawXm6FRwls8OHcYWKYUFQXWndLIQQQnIZFFhh6CpQWqkMSOPKblgQkaW0g+qKEEKCoN14XQVKK1fj+Dau4DIsCA8p7aC6IoSQUMjJwYq0L6ElywoWpBVsp1uBxlW1IzKlnRBCiD7DAivWfs+UVuqjBWRcgWFBucWkuiKEkGhoA5Z0FdSz1xFQNBCBSSuYk0SI2biC27AgYk9pB9UVIYR4oW20B3PZjt4sKwQpreA63QoNN67gL+kKPlLaQXVFCCG+SOdgBd+XkNJKbzSPSfEujCs0LiwIprQTQki49AUWdVXFQWKXVqiPcYV6hAVBdUUIIfFiodkzKK2CkVagcYVAw4LwkdIOqitCCHFEW32XYC0rUFqpj2YtthiBcQWTYUFQXRFCCNlAXmA57Pds1bJC9UQrmJdWiDcmiDoYV6hBWBBMaSeEkHAoFVgO+z3btqzQAGmF+I0reM9nB9UVIYSQiuQJLIe6CpRWhk7WaTWHMKQVHIcFwZR2QgghMowILLd9Cb3pKjRSWqHuxhW8hgVBdUUIIaSPxFuE5vs9U1qZO99mSiswLFh9X0IIIRbJz8GKVFfBSDQQXqUVgowJwoTKgQ/jCnUMC4LqihBCQsZBs2ftZ30wlhUilVagceW5BilT2gkhpKlYbfbs17ICpZWJoYxIKzTOuALVFSGENBobzZ5dWVagtLI9WmONKzAsSAghpAoGmz1Hp6ugkmgFSiutw8Wfzw6qK0IIIcpUb/Zc5clOaWVwTGsxQXhKZgfDgqb2JYQQ4pq289R1GNVVsBkNRMOkFWwZV8LIoaMOC4LqihBCGoV6s2eXugqWLSuYqOkQuLRCDWKCqHNYEKwjSgghNURaYIWiq0BppTCgsZggaFzpLjKNK0IIaSJlAqvSQ9yvZQVbiVaojbRC440rUF0RQgixQY7ACkhXwbJlBUqr/OEtSSuEaFyBSVeEEEKMMVLJPWpdhfpKK8QREwSNK4nd7SozQgghQdCr5O5cV8GJZQVDfQnrI63QAOMKdvPZwbAgIYSQctruqoOW7xevZQVKKydH912DlGFBQgghcqiWaQhEV4HSSmVASUnkSl3ZekUx4LAgqK4IIaRZSAqsKnXezQ4r7B6l9tIKNK60RmDSFSGEEBWKBVY4ugp2LSvEI63gPiaIWhtXYFiQEEKIcTIFVgy6CpRWKgP6jQmikcYVqK4IIaS5DAos6ir9k9QdmdJKbhwvpRwYFiSEEKJL25quQuMsKwQmreA7Joi6GlewGBYE1RUhhNSBts5OkeoqUFppjRa1cQWGBQkhhHhARWBZ0VWw/mIgbEYDgeDKkNYjJggN4wqe89lBdUUIIWQNCYHlWFfBo2UFSivFKbuJCSL+sCCorgghpFHkC6yAdBUorUrGrNQRqPHGFbyGBUF1RQghNSQlsNzrKsRjWSE8aQX36VagcaUyAo0rQghpIr1mz6Wb2ekGXU/LCpRWJsYJwbgCw4KEEEL0aFsoYVW2r2ddBUorrV1d9oquu3EFqitCCKk5piu5O9NVCCoaCK/SCrEaV74GoXFFCCHEMn2BVfGhr6erEKJlBUor1R3jMa7gwHmiuiKEEFKxkrtm6jpcWVagtKpLTBD+jSswLEgIIUQWrUruTddVaJy0QuDGFRgWJIQQEhRKAsutrkLMlhUilVagcWV+BKorQghpHjICS1tXIVzLCnWVVggg3QpWqjCAYUFCCCHRkCewSr82Kv06ZyfTXaLNHIXSSmk4GlcVr2dCCCF1YERg+dBVCNOyQkOlFQKLCYLqihBCSHz0BFZEugqUVrpjSmxntzR8DMnsjkYghBBSc/LLNNjrn1MPXYXaSysEZlxVr3EFGleEEELcoNrsGc51FWK2rEBp5WgcoXUgtUFoXBFCCJFlXWBZCgIicF2FRksreI8JoibGFaiuCCGEDGGv2bPDUCCCigaC0qpexhUYFiSEEKKK8WbP9bKsELu0QpAxQZjp+kzjihBCSKgMCqx4dBVCiwaicdIKjTeuQHVFCCEklzZ1VeVD2JBWqFDaCnWOCYLGFSGEkAjQavZc6dulNkXelcpbNFxagcYVIYSQRqEisNzrKoRZ5N2htEIwmexognEF5rMTQggxgoTAikZXAb76EsYhrRBluhVoXBFCCImPfIFVY10Fq4lWqJrGDl/SCuE1zzEhjEB1RQghxDXpSu4+dBXqYVmh7tIKNK4IIYQQGdpA9a+Q4HUVKK2qD2hKWsFRMjuorgghhHij7brOwtquERZ595xolbN1KNIKNK4IIYSQPhplGhrWl1AYmVJo0gpxplshmFIOhBBCSBHyAisSXYWgooGwIq1QRQzBeboVmMxOCCGkaZQKrBrrKlBaBfHKIY0rQgghtSOoZs+A337PwtSsnEkrMN1KbhxTkyGEEEKkCKHZM+piWYHSSmE0GleEEELqS7vRugo2o4Gou7QCjStCCCEkm7bmfrH3JbRqWakNY6MqRKgV3t1JK9C4IoQQ4hFFgVWDfs+UVhUH1PbAaFwRQgKMTl0AAAUWSURBVAhpDHICqwZ9CYXBGdpJtIKb0laINd0KNK4IIYREg6Vmzwio33NAlhXcNY0OJHlLVDii8lA0rgghhISC2WbPCKh/jm3LCpRWRj5QGleEEEJqyLrAqlO/Z2FwklFJKzgoQxqhtALVFSGEENe0/eRXwaWugifLChZSzpWG9WGDOY0JgsYVIYSQMNEr0xBY/5zgLCv4llbwkMkOGleEEELIGkoCKxZdhbCigYhEWoExQUIIIcQMNps9ozm6CpRWBi4kxgQJIYTUhTyBFZ6uAqVV9WGNDhiatALVFSGEkFAw1+wZ1uqRutFVsJpohVpJK5iTRKBxRQghpIa0G6Or4MmyQtXKCwiswjuNK0IIIaSMtv6uHnQVQrSsYC0aCEorqxchIYQQYguXzZ7hNsUK5iwrUFoZ+HzVRqO6IoQQEjEOmj0jFF2FoKKBiKPCO6UVIYQQok6hwIpMV8GfZYUaSiswJkgIIYRoYrzZMyroKgRgWYHSSuUyCLCaAyGEEOIfU82eQV2lM36AtbIYEySEEEIqY7nZsxVdhegtK1Ba2ZgYIYQQEgp2mj3XU1eB0sr1aJRWhBBC4sRos+c4dBX8RAMRtbQC060IIYQQeWQEVpXkKkSgq+Al0Qq1klZgTJAQQgjZQLfZsxddhXpYVvDdl5AxQUIIIcQuIwLLo65CfSwrUFqpj0ZpRQghpEbINXu2lVxVtrtwOWDYiVaor7QC1RUhhJC6kZ+DZdesggVdBSeWFVwnWiEwaQWmWxFCCCElpCu5l+5SD12FCKKBiFRagTFBQgghDacNOBBVcJq6DuONDiNsnuPnJUFQWhFCCCEA2naaLsvtHmMosOg3YdR0CFlageqKEEJII8jMwaqTrkJ4lhUorQghhJB60xdYloOAiFlXIfi+hJRWhBBCSEi07fpVwsvIkVhWiFpageqKEEIIyaOtu2OtdRUaKa1A44oQQggxg8tmzxV2Np+JL+wfyFq5LEorQgghJGwqN3uGL12FWlhWoLQihBBC6odus2fEpavgzbICpRUhhBDSOIw3e66wv0tdBScVs5wmWiGGCu+EEEJII2jbN6vgQ1ehSZYVYqiVRQghhDSIKs2eSwlJV8GjZQVKK0IIIaRRaDR7LiUWXQVKK80xKa0IIYSQQiSbPctAXVXhEJRWhBBCSI1oW3wZEPZ0FSitzA1LaUUIIYQYRq+Se4N1FcKOBsJvQQdCCCGEAG4ruUehqxCrZQVKK0IIISQUSgVW9cpYdnQVIuxLSGlFCCGENAPdSu710VVwUTGL0ooQQghpEoMCy0jF0fh1FXxZVqC0IoQQQupB27dZBee6CuFZVqC0IoQQQupElUruvnQVgu5LGEQ0EJRWhBBCiEeGBZbUV20TdBWitaxAaUUIIYR4p+1EVKHOfQkprQghhBAyTHGZhuboKlBaEUIIIcQUaYFlWVSBusrs+JRWhBBCSHD0BJaRr97wdBWMhgJBaUUIIYQQKdp2k9ZRi/45wmhd+KrjC8szJ4QQQkhVvDR7RjR9CSO1rEBpRQghhPjEZbNn1FdXgdKKEEIIIX0qN3tGmLoKgVpWoLQihBBC6k+YzZ7hun9OcJYVKK0IIYSQeAmq2TNi0FWgtCKEEEJIMUaaPSO+fs8OLCswGkgIIYQ0FI/NnuGhzjstK0IIIYTYx32zZ9RWV4HSihBCCCFAKM2eYa0eaYihQNi3xAghhBDiE6/NnhGUrgKlFSGEEEKM8P8DY4fK4ZPh5roAAAAZdEVYdFNvZnR3YXJlAEFkb2JlIEltYWdlUmVhZHlxyWU8AAAAEnRFWHRFWElGOk9yaWVudGF0aW9uADGEWOzvAAAAAElFTkSuQmCC&quot;,&quot;width&quot;:&quot;800&quot;,&quot;height&quot;:&quot;600&quot;}" math="0" shadow="0"><root><mxCell id="ZZ_ljfXqn5S-xZBnqSQn-0"/><mxCell id="ZZ_ljfXqn5S-xZBnqSQn-1" parent="ZZ_ljfXqn5S-xZBnqSQn-0"/></root></mxGraphModel></diagram><diagram id="wV2cRTjDsvZZDLar3r6k" name="Mechanism"><mxGraphModel dx="804" dy="445" grid="1" gridSize="10" guides="1" tooltips="1" connect="1" arrows="1" fold="1" page="1" pageScale="1" pageWidth="850" pageHeight="1100" math="0" shadow="0"><root><mxCell id="wJlNVxTHLVt1GU5JHlgY-0"/><mxCell id="wJlNVxTHLVt1GU5JHlgY-1" parent="wJlNVxTHLVt1GU5JHlgY-0"/><mxCell id="wJlNVxTHLVt1GU5JHlgY-40" value="" style="edgeStyle=orthogonalEdgeStyle;rounded=0;orthogonalLoop=1;jettySize=auto;html=1;fontSize=12;fontColor=#FFFFFF;" parent="wJlNVxTHLVt1GU5JHlgY-1" source="wJlNVxTHLVt1GU5JHlgY-2" target="wJlNVxTHLVt1GU5JHlgY-20" edge="1"><mxGeometry relative="1" as="geometry"/></mxCell><mxCell id="wJlNVxTHLVt1GU5JHlgY-2" value="Furniture" style="rounded=1;whiteSpace=wrap;html=1;fontSize=19;fontColor=#ffffff;fillColor=#008a00;strokeColor=#005700;" parent="wJlNVxTHLVt1GU5JHlgY-1" vertex="1"><mxGeometry x="40" y="340" width="120" height="60" as="geometry"/></mxCell><mxCell id="wJlNVxTHLVt1GU5JHlgY-42" value="" style="edgeStyle=orthogonalEdgeStyle;rounded=0;orthogonalLoop=1;jettySize=auto;html=1;fontSize=12;fontColor=#FFFFFF;" parent="wJlNVxTHLVt1GU5JHlgY-1" source="wJlNVxTHLVt1GU5JHlgY-3" target="wJlNVxTHLVt1GU5JHlgY-22" edge="1"><mxGeometry relative="1" as="geometry"/></mxCell><mxCell id="wJlNVxTHLVt1GU5JHlgY-3" value="Parking" style="rounded=1;whiteSpace=wrap;html=1;fontSize=19;fontColor=#ffffff;fillColor=#008a00;strokeColor=#005700;" parent="wJlNVxTHLVt1GU5JHlgY-1" vertex="1"><mxGeometry x="40" y="520" width="120" height="60" as="geometry"/></mxCell><mxCell id="wJlNVxTHLVt1GU5JHlgY-41" value="" style="edgeStyle=orthogonalEdgeStyle;rounded=0;orthogonalLoop=1;jettySize=auto;html=1;fontSize=12;fontColor=#FFFFFF;" parent="wJlNVxTHLVt1GU5JHlgY-1" source="wJlNVxTHLVt1GU5JHlgY-4" target="wJlNVxTHLVt1GU5JHlgY-21" edge="1"><mxGeometry relative="1" as="geometry"/></mxCell><mxCell id="wJlNVxTHLVt1GU5JHlgY-4" value="Storage" style="rounded=1;whiteSpace=wrap;html=1;fontSize=19;fontColor=#ffffff;fillColor=#008a00;strokeColor=#005700;" parent="wJlNVxTHLVt1GU5JHlgY-1" vertex="1"><mxGeometry x="40" y="430" width="120" height="60" as="geometry"/></mxCell><mxCell id="wJlNVxTHLVt1GU5JHlgY-37" value="" style="edgeStyle=orthogonalEdgeStyle;rounded=0;orthogonalLoop=1;jettySize=auto;html=1;fontSize=12;fontColor=#FFFFFF;" parent="wJlNVxTHLVt1GU5JHlgY-1" source="wJlNVxTHLVt1GU5JHlgY-5" target="wJlNVxTHLVt1GU5JHlgY-14" edge="1"><mxGeometry relative="1" as="geometry"/></mxCell><mxCell id="wJlNVxTHLVt1GU5JHlgY-5" value="Notary" style="rounded=1;whiteSpace=wrap;html=1;fontSize=19;fontColor=#ffffff;fillColor=#a20025;strokeColor=#6F0000;" parent="wJlNVxTHLVt1GU5JHlgY-1" vertex="1"><mxGeometry x="40" y="180" width="120" height="60" as="geometry"/></mxCell><mxCell id="wJlNVxTHLVt1GU5JHlgY-6" value="To be filled in by the user" style="rounded=1;whiteSpace=wrap;html=1;fontSize=19;fontColor=#FFFFFF;" parent="wJlNVxTHLVt1GU5JHlgY-1" vertex="1"><mxGeometry x="180" y="20" width="480" height="60" as="geometry"/></mxCell><mxCell id="wJlNVxTHLVt1GU5JHlgY-35" value="" style="edgeStyle=orthogonalEdgeStyle;rounded=0;orthogonalLoop=1;jettySize=auto;html=1;fontSize=12;fontColor=#FFFFFF;" parent="wJlNVxTHLVt1GU5JHlgY-1" source="wJlNVxTHLVt1GU5JHlgY-7" target="wJlNVxTHLVt1GU5JHlgY-13" edge="1"><mxGeometry relative="1" as="geometry"/></mxCell><mxCell id="wJlNVxTHLVt1GU5JHlgY-7" value="Mortgage" style="rounded=1;whiteSpace=wrap;html=1;fontSize=19;fontColor=#ffffff;fillColor=#a20025;strokeColor=#6F0000;" parent="wJlNVxTHLVt1GU5JHlgY-1" vertex="1"><mxGeometry x="40" y="100" width="120" height="60" as="geometry"/></mxCell><mxCell id="wJlNVxTHLVt1GU5JHlgY-11" value="Sum" style="rounded=1;whiteSpace=wrap;html=1;fontSize=19;fontColor=#FFFFFF;" parent="wJlNVxTHLVt1GU5JHlgY-1" vertex="1"><mxGeometry x="200" y="610" width="480" height="60" as="geometry"/></mxCell><mxCell id="wJlNVxTHLVt1GU5JHlgY-36" style="edgeStyle=orthogonalEdgeStyle;rounded=0;orthogonalLoop=1;jettySize=auto;html=1;entryX=0;entryY=0.5;entryDx=0;entryDy=0;fontSize=12;fontColor=#FFFFFF;" parent="wJlNVxTHLVt1GU5JHlgY-1" source="wJlNVxTHLVt1GU5JHlgY-13" target="wJlNVxTHLVt1GU5JHlgY-29" edge="1"><mxGeometry relative="1" as="geometry"/></mxCell><mxCell id="wJlNVxTHLVt1GU5JHlgY-13" value="Mandatory field" style="rounded=1;whiteSpace=wrap;html=1;fontSize=19;fontColor=#ffffff;fillColor=#a20025;strokeColor=#6F0000;" parent="wJlNVxTHLVt1GU5JHlgY-1" vertex="1"><mxGeometry x="200" y="100" width="120" height="60" as="geometry"/></mxCell><mxCell id="wJlNVxTHLVt1GU5JHlgY-38" style="edgeStyle=orthogonalEdgeStyle;rounded=0;orthogonalLoop=1;jettySize=auto;html=1;entryX=0;entryY=0.5;entryDx=0;entryDy=0;fontSize=12;fontColor=#FFFFFF;" parent="wJlNVxTHLVt1GU5JHlgY-1" source="wJlNVxTHLVt1GU5JHlgY-14" target="wJlNVxTHLVt1GU5JHlgY-30" edge="1"><mxGeometry relative="1" as="geometry"/></mxCell><mxCell id="wJlNVxTHLVt1GU5JHlgY-14" value="Mandatory field" style="rounded=1;whiteSpace=wrap;html=1;fontSize=19;fontColor=#ffffff;fillColor=#a20025;strokeColor=#6F0000;" parent="wJlNVxTHLVt1GU5JHlgY-1" vertex="1"><mxGeometry x="200" y="180" width="120" height="60" as="geometry"/></mxCell><mxCell id="wJlNVxTHLVt1GU5JHlgY-39" value="" style="edgeStyle=orthogonalEdgeStyle;rounded=0;orthogonalLoop=1;jettySize=auto;html=1;fontSize=12;fontColor=#FFFFFF;" parent="wJlNVxTHLVt1GU5JHlgY-1" source="wJlNVxTHLVt1GU5JHlgY-15" target="wJlNVxTHLVt1GU5JHlgY-16" edge="1"><mxGeometry relative="1" as="geometry"/></mxCell><mxCell id="wJlNVxTHLVt1GU5JHlgY-15" value="Apartment Type" style="rounded=1;whiteSpace=wrap;html=1;fontSize=19;fontColor=#ffffff;fillColor=#008a00;strokeColor=#005700;" parent="wJlNVxTHLVt1GU5JHlgY-1" vertex="1"><mxGeometry x="40" y="260" width="120" height="60" as="geometry"/></mxCell><mxCell id="wJlNVxTHLVt1GU5JHlgY-43" value="" style="edgeStyle=orthogonalEdgeStyle;rounded=0;orthogonalLoop=1;jettySize=auto;html=1;fontSize=12;fontColor=#FFFFFF;" parent="wJlNVxTHLVt1GU5JHlgY-1" source="wJlNVxTHLVt1GU5JHlgY-16" target="wJlNVxTHLVt1GU5JHlgY-17" edge="1"><mxGeometry relative="1" as="geometry"/></mxCell><mxCell id="wJlNVxTHLVt1GU5JHlgY-16" value="Optional field" style="rounded=1;whiteSpace=wrap;html=1;fontSize=19;fontColor=#ffffff;fillColor=#008a00;strokeColor=#005700;" parent="wJlNVxTHLVt1GU5JHlgY-1" vertex="1"><mxGeometry x="200" y="260" width="120" height="60" as="geometry"/></mxCell><mxCell id="wJlNVxTHLVt1GU5JHlgY-47" value="" style="edgeStyle=orthogonalEdgeStyle;rounded=0;orthogonalLoop=1;jettySize=auto;html=1;fontSize=12;fontColor=#FFFFFF;" parent="wJlNVxTHLVt1GU5JHlgY-1" source="wJlNVxTHLVt1GU5JHlgY-17" target="wJlNVxTHLVt1GU5JHlgY-18" edge="1"><mxGeometry relative="1" as="geometry"/></mxCell><mxCell id="wJlNVxTHLVt1GU5JHlgY-17" value="Yes or No" style="rounded=1;whiteSpace=wrap;html=1;fontSize=19;fontColor=#FFFFFF;" parent="wJlNVxTHLVt1GU5JHlgY-1" vertex="1"><mxGeometry x="360" y="260" width="120" height="60" as="geometry"/></mxCell><mxCell id="wJlNVxTHLVt1GU5JHlgY-51" value="" style="edgeStyle=orthogonalEdgeStyle;rounded=0;orthogonalLoop=1;jettySize=auto;html=1;fontSize=12;fontColor=#FFFFFF;" parent="wJlNVxTHLVt1GU5JHlgY-1" source="wJlNVxTHLVt1GU5JHlgY-18" target="wJlNVxTHLVt1GU5JHlgY-31" edge="1"><mxGeometry relative="1" as="geometry"/></mxCell><mxCell id="wJlNVxTHLVt1GU5JHlgY-18" value="1, 2, 3 rooms" style="rounded=1;whiteSpace=wrap;html=1;fontSize=19;fontColor=#FFFFFF;" parent="wJlNVxTHLVt1GU5JHlgY-1" vertex="1"><mxGeometry x="520" y="260" width="120" height="60" as="geometry"/></mxCell><mxCell id="wJlNVxTHLVt1GU5JHlgY-52" value="" style="edgeStyle=orthogonalEdgeStyle;rounded=0;orthogonalLoop=1;jettySize=auto;html=1;fontSize=12;fontColor=#FFFFFF;" parent="wJlNVxTHLVt1GU5JHlgY-1" source="wJlNVxTHLVt1GU5JHlgY-19" target="wJlNVxTHLVt1GU5JHlgY-32" edge="1"><mxGeometry relative="1" as="geometry"/></mxCell><mxCell id="wJlNVxTHLVt1GU5JHlgY-19" value="Price depending on number of rooms" style="rounded=1;whiteSpace=wrap;html=1;fontSize=12;fontColor=#FFFFFF;" parent="wJlNVxTHLVt1GU5JHlgY-1" vertex="1"><mxGeometry x="520" y="340" width="120" height="60" as="geometry"/></mxCell><mxCell id="wJlNVxTHLVt1GU5JHlgY-44" value="" style="edgeStyle=orthogonalEdgeStyle;rounded=0;orthogonalLoop=1;jettySize=auto;html=1;fontSize=12;fontColor=#FFFFFF;" parent="wJlNVxTHLVt1GU5JHlgY-1" source="wJlNVxTHLVt1GU5JHlgY-20" target="wJlNVxTHLVt1GU5JHlgY-24" edge="1"><mxGeometry relative="1" as="geometry"/></mxCell><mxCell id="wJlNVxTHLVt1GU5JHlgY-20" value="Optional field" style="rounded=1;whiteSpace=wrap;html=1;fontSize=19;fontColor=#ffffff;fillColor=#008a00;strokeColor=#005700;" parent="wJlNVxTHLVt1GU5JHlgY-1" vertex="1"><mxGeometry x="200" y="340" width="120" height="60" as="geometry"/></mxCell><mxCell id="wJlNVxTHLVt1GU5JHlgY-45" value="" style="edgeStyle=orthogonalEdgeStyle;rounded=0;orthogonalLoop=1;jettySize=auto;html=1;fontSize=12;fontColor=#FFFFFF;" parent="wJlNVxTHLVt1GU5JHlgY-1" source="wJlNVxTHLVt1GU5JHlgY-21" target="wJlNVxTHLVt1GU5JHlgY-25" edge="1"><mxGeometry relative="1" as="geometry"/></mxCell><mxCell id="wJlNVxTHLVt1GU5JHlgY-21" value="Optional field" style="rounded=1;whiteSpace=wrap;html=1;fontSize=19;fontColor=#ffffff;fillColor=#008a00;strokeColor=#005700;" parent="wJlNVxTHLVt1GU5JHlgY-1" vertex="1"><mxGeometry x="200" y="430" width="120" height="60" as="geometry"/></mxCell><mxCell id="wJlNVxTHLVt1GU5JHlgY-46" value="" style="edgeStyle=orthogonalEdgeStyle;rounded=0;orthogonalLoop=1;jettySize=auto;html=1;fontSize=12;fontColor=#FFFFFF;" parent="wJlNVxTHLVt1GU5JHlgY-1" source="wJlNVxTHLVt1GU5JHlgY-22" target="wJlNVxTHLVt1GU5JHlgY-26" edge="1"><mxGeometry relative="1" as="geometry"/></mxCell><mxCell id="wJlNVxTHLVt1GU5JHlgY-22" value="Optional field" style="rounded=1;whiteSpace=wrap;html=1;fontSize=19;fontColor=#ffffff;fillColor=#008a00;strokeColor=#005700;" parent="wJlNVxTHLVt1GU5JHlgY-1" vertex="1"><mxGeometry x="200" y="520" width="120" height="60" as="geometry"/></mxCell><mxCell id="wJlNVxTHLVt1GU5JHlgY-48" value="" style="edgeStyle=orthogonalEdgeStyle;rounded=0;orthogonalLoop=1;jettySize=auto;html=1;fontSize=12;fontColor=#FFFFFF;" parent="wJlNVxTHLVt1GU5JHlgY-1" source="wJlNVxTHLVt1GU5JHlgY-24" target="wJlNVxTHLVt1GU5JHlgY-19" edge="1"><mxGeometry relative="1" as="geometry"/></mxCell><mxCell id="wJlNVxTHLVt1GU5JHlgY-24" value="Yes or No" style="rounded=1;whiteSpace=wrap;html=1;fontSize=19;fontColor=#FFFFFF;" parent="wJlNVxTHLVt1GU5JHlgY-1" vertex="1"><mxGeometry x="360" y="340" width="120" height="60" as="geometry"/></mxCell><mxCell id="wJlNVxTHLVt1GU5JHlgY-49" value="" style="edgeStyle=orthogonalEdgeStyle;rounded=0;orthogonalLoop=1;jettySize=auto;html=1;fontSize=12;fontColor=#FFFFFF;" parent="wJlNVxTHLVt1GU5JHlgY-1" source="wJlNVxTHLVt1GU5JHlgY-25" target="wJlNVxTHLVt1GU5JHlgY-27" edge="1"><mxGeometry relative="1" as="geometry"/></mxCell><mxCell id="wJlNVxTHLVt1GU5JHlgY-25" value="Yes or No" style="rounded=1;whiteSpace=wrap;html=1;fontSize=19;fontColor=#FFFFFF;" parent="wJlNVxTHLVt1GU5JHlgY-1" vertex="1"><mxGeometry x="360" y="430" width="120" height="60" as="geometry"/></mxCell><mxCell id="wJlNVxTHLVt1GU5JHlgY-50" value="" style="edgeStyle=orthogonalEdgeStyle;rounded=0;orthogonalLoop=1;jettySize=auto;html=1;fontSize=12;fontColor=#FFFFFF;" parent="wJlNVxTHLVt1GU5JHlgY-1" source="wJlNVxTHLVt1GU5JHlgY-26" target="wJlNVxTHLVt1GU5JHlgY-28" edge="1"><mxGeometry relative="1" as="geometry"/></mxCell><mxCell id="wJlNVxTHLVt1GU5JHlgY-26" value="Yes or No" style="rounded=1;whiteSpace=wrap;html=1;fontSize=19;fontColor=#FFFFFF;" parent="wJlNVxTHLVt1GU5JHlgY-1" vertex="1"><mxGeometry x="360" y="520" width="120" height="60" as="geometry"/></mxCell><mxCell id="wJlNVxTHLVt1GU5JHlgY-53" value="" style="edgeStyle=orthogonalEdgeStyle;rounded=0;orthogonalLoop=1;jettySize=auto;html=1;fontSize=12;fontColor=#FFFFFF;" parent="wJlNVxTHLVt1GU5JHlgY-1" source="wJlNVxTHLVt1GU5JHlgY-27" target="wJlNVxTHLVt1GU5JHlgY-33" edge="1"><mxGeometry relative="1" as="geometry"/></mxCell><mxCell id="wJlNVxTHLVt1GU5JHlgY-27" value="Fixed priced to be input by user" style="rounded=1;whiteSpace=wrap;html=1;fontSize=12;fontColor=#FFFFFF;" parent="wJlNVxTHLVt1GU5JHlgY-1" vertex="1"><mxGeometry x="520" y="430" width="120" height="60" as="geometry"/></mxCell><mxCell id="wJlNVxTHLVt1GU5JHlgY-54" value="" style="edgeStyle=orthogonalEdgeStyle;rounded=0;orthogonalLoop=1;jettySize=auto;html=1;fontSize=12;fontColor=#FFFFFF;" parent="wJlNVxTHLVt1GU5JHlgY-1" source="wJlNVxTHLVt1GU5JHlgY-28" target="wJlNVxTHLVt1GU5JHlgY-34" edge="1"><mxGeometry relative="1" as="geometry"/></mxCell><mxCell id="wJlNVxTHLVt1GU5JHlgY-28" value="Fixed priced to be input by user" style="rounded=1;whiteSpace=wrap;html=1;fontSize=12;fontColor=#FFFFFF;" parent="wJlNVxTHLVt1GU5JHlgY-1" vertex="1"><mxGeometry x="520" y="520" width="120" height="60" as="geometry"/></mxCell><mxCell id="wJlNVxTHLVt1GU5JHlgY-29" value="Amount" style="rounded=1;whiteSpace=wrap;html=1;fontSize=12;fontColor=#ffffff;fillColor=#6a00ff;strokeColor=#3700CC;" parent="wJlNVxTHLVt1GU5JHlgY-1" vertex="1"><mxGeometry x="680" y="100" width="80" height="60" as="geometry"/></mxCell><mxCell id="wJlNVxTHLVt1GU5JHlgY-30" value="Amount" style="rounded=1;whiteSpace=wrap;html=1;fontSize=12;fontColor=#ffffff;fillColor=#6a00ff;strokeColor=#3700CC;" parent="wJlNVxTHLVt1GU5JHlgY-1" vertex="1"><mxGeometry x="680" y="180" width="80" height="60" as="geometry"/></mxCell><mxCell id="wJlNVxTHLVt1GU5JHlgY-31" value="Amount" style="rounded=1;whiteSpace=wrap;html=1;fontSize=12;fontColor=#ffffff;fillColor=#6a00ff;strokeColor=#3700CC;" parent="wJlNVxTHLVt1GU5JHlgY-1" vertex="1"><mxGeometry x="680" y="260" width="80" height="60" as="geometry"/></mxCell><mxCell id="wJlNVxTHLVt1GU5JHlgY-32" value="Amount" style="rounded=1;whiteSpace=wrap;html=1;fontSize=12;fontColor=#ffffff;fillColor=#6a00ff;strokeColor=#3700CC;" parent="wJlNVxTHLVt1GU5JHlgY-1" vertex="1"><mxGeometry x="680" y="340" width="80" height="60" as="geometry"/></mxCell><mxCell id="wJlNVxTHLVt1GU5JHlgY-33" value="Amount" style="rounded=1;whiteSpace=wrap;html=1;fontSize=12;fontColor=#ffffff;fillColor=#6a00ff;strokeColor=#3700CC;" parent="wJlNVxTHLVt1GU5JHlgY-1" vertex="1"><mxGeometry x="680" y="430" width="80" height="60" as="geometry"/></mxCell><mxCell id="wJlNVxTHLVt1GU5JHlgY-34" value="Amount" style="rounded=1;whiteSpace=wrap;html=1;fontSize=12;fontColor=#ffffff;fillColor=#6a00ff;strokeColor=#3700CC;" parent="wJlNVxTHLVt1GU5JHlgY-1" vertex="1"><mxGeometry x="680" y="520" width="80" height="60" as="geometry"/></mxCell></root></mxGraphModel></diagram></mxfile>